<?xml version="1.0" encoding="UTF-8" standalone="no"?>
<!-- Created with Inkscape (http://www.inkscape.org/) -->

<svg
   version="1.1"
   id="svg2"
   width="1201.3333"
   height="668"
   viewBox="0 0 1201.3333 668"
   sodipodi:docname="5184408.eps"
   xmlns:inkscape="http://www.inkscape.org/namespaces/inkscape"
   xmlns:sodipodi="http://sodipodi.sourceforge.net/DTD/sodipodi-0.dtd"
   xmlns="http://www.w3.org/2000/svg"
   xmlns:svg="http://www.w3.org/2000/svg">
  <defs
     id="defs6">
    <clipPath
       clipPathUnits="userSpaceOnUse"
       id="clipPath22">
      <path
         d="M 5,5 H 9005 V 5005 H 5 Z"
         id="path20" />
    </clipPath>
    <clipPath
       clipPathUnits="userSpaceOnUse"
       id="clipPath366">
      <path
         d="m 1960.4,1476.9 c 0,-87.83 -71.21,-159.04 -159.04,-159.04 -87.84,0 -159.04,71.21 -159.04,159.04 0,87.85 71.2,159.05 159.04,159.05 87.83,0 159.04,-71.2 159.04,-159.05"
         id="path364" />
    </clipPath>
    <clipPath
       clipPathUnits="userSpaceOnUse"
       id="clipPath380">
      <path
         d="M 5,5 H 9005 V 5005 H 5 Z"
         id="path378" />
    </clipPath>
    <clipPath
       clipPathUnits="userSpaceOnUse"
       id="clipPath390">
      <path
         d="m 1064.17,1476.9 c 0,-87.83 -71.205,-159.04 -159.045,-159.04 -87.836,0 -159.039,71.21 -159.039,159.04 0,87.85 71.203,159.05 159.039,159.05 87.84,0 159.045,-71.2 159.045,-159.05"
         id="path388" />
    </clipPath>
    <clipPath
       clipPathUnits="userSpaceOnUse"
       id="clipPath404">
      <path
         d="M 5,5 H 9005 V 5005 H 5 Z"
         id="path402" />
    </clipPath>
    <clipPath
       clipPathUnits="userSpaceOnUse"
       id="clipPath414">
      <path
         d="m 1499.57,1476.9 c 0,-87.83 -71.21,-159.04 -159.05,-159.04 -87.84,0 -159.04,71.21 -159.04,159.04 0,87.85 71.2,159.05 159.04,159.05 87.84,0 159.05,-71.2 159.05,-159.05"
         id="path412" />
    </clipPath>
    <clipPath
       clipPathUnits="userSpaceOnUse"
       id="clipPath428">
      <path
         d="M 5,5 H 9005 V 5005 H 5 Z"
         id="path426" />
    </clipPath>
  </defs>
  <sodipodi:namedview
     id="namedview4"
     pagecolor="#ffffff"
     bordercolor="#000000"
     borderopacity="0.25"
     inkscape:showpageshadow="2"
     inkscape:pageopacity="0.0"
     inkscape:pagecheckerboard="0"
     inkscape:deskcolor="#d1d1d1" />
  <g
     id="g8"
     inkscape:groupmode="layer"
     inkscape:label="ink_ext_XXXXXX"
     transform="matrix(1.3333333,0,0,-1.3333333,0,668)">
    <g
       id="g10"
       transform="scale(0.1)">
      <path
         d="M 5,5 H 9005 V 5005 H 5 Z"
         style="fill:#ffffff;fill-opacity:1;fill-rule:nonzero;stroke:none"
         id="path12" />
      <path
         d="m 9005,5 v 5 H 10 V 5000 H 9000 V 5 h 5 v 5 -5 h 5 V 5010 H 0 V 0 h 9010 v 5 h -5"
         style="fill:#000000;fill-opacity:1;fill-rule:nonzero;stroke:none"
         id="path14" />
      <g
         id="g16">
        <g
           id="g18"
           clip-path="url(#clipPath22)">
          <path
             d="m 7224.3,2886.44 c -324.01,303.7 -703.56,382.05 -803.9,398.05 67.56,182.27 171.99,453.29 198,493.43 8.37,1.14 25.46,2.9 50.71,2.9 73.71,0 231.45,-15.34 459.66,-118.03 329.54,-148.3 417.76,-315.14 435.09,-355.94 L 7224.3,2886.44"
             style="fill:#ffffff;fill-opacity:1;fill-rule:nonzero;stroke:none"
             id="path24" />
          <path
             d="m 6669.11,3800.82 c -40.1,0 -60.7,-4.23 -60.7,-4.23 -23.43,-7.81 -215.37,-528.43 -215.37,-528.43 0,0 455.63,-46.49 833.18,-411.17 l 360.39,446.2 c 0,0 -60.14,202.56 -449.64,377.84 -228.24,102.71 -387.33,119.79 -467.86,119.79 z m 0,-40 c 72.11,0 226.65,-15.11 451.46,-116.27 298.14,-134.16 394.48,-284.14 419.86,-334.88 l -318.26,-394.04 c -191.54,174.37 -397.97,270.7 -540.74,321.4 -101.25,35.95 -184.14,54.37 -233.82,63.31 74.67,200.65 155.92,407.21 183.19,458.85 8.86,0.83 21.68,1.63 38.31,1.63"
             style="fill:#a0c6f4;fill-opacity:1;fill-rule:nonzero;stroke:none"
             id="path26" />
          <path
             d="m 6459.42,3222.75 c 0,-0.01 1.7,-0.18 5.02,-0.57 49.81,-5.75 459.11,-60.62 716.18,-296.83 2.04,-1.86 5.2,-1.73 7.07,0.31 1.86,2.03 1.73,5.19 -0.3,7.06 -277.9,254.88 -726.55,299.82 -726.97,299.97 -2.74,0.28 -5.2,-1.72 -5.47,-4.47 -0.28,-2.75 1.72,-5.2 4.47,-5.48"
             style="fill:#2a1e17;fill-opacity:1;fill-rule:nonzero;stroke:none"
             id="path28" />
          <path
             d="m 6846.8,3249.57 167.14,324.99 171.78,-338.92 z"
             style="fill:#a0c6f4;fill-opacity:1;fill-rule:nonzero;stroke:none"
             id="path30" />
          <path
             d="m 6879.3,3254.21 4.44,-2.28 162.66,316.28 163.51,-322.58 -330.41,13.58 -0.2,-5 4.44,-2.28 -4.44,2.28 -0.21,-4.99 338.93,-13.93 c 1.77,-0.08 3.45,0.8 4.41,2.29 0.96,1.49 1.05,3.39 0.25,4.96 l -171.79,338.92 c -0.85,1.68 -2.56,2.74 -4.44,2.74 -1.88,0.01 -3.6,-1.04 -4.46,-2.71 L 6874.85,3256.5 c -0.78,-1.52 -0.73,-3.33 0.13,-4.8 0.85,-1.48 2.41,-2.41 4.11,-2.48 l 0.21,4.99"
             style="fill:#2a1e17;fill-opacity:1;fill-rule:nonzero;stroke:none"
             id="path32" />
          <path
             d="m 6721.95,3815.58 c 0.01,0 1.89,-0.17 5.61,-0.59 55.82,-6.19 514.49,-67.82 805.61,-414 1.77,-2.11 4.93,-2.38 7.04,-0.6 2.11,1.78 2.39,4.93 0.61,7.04 -156.94,186.49 -361.41,290.94 -526.57,348.83 -165.17,57.9 -291.12,69.25 -291.4,69.28 -2.75,0.25 -5.18,-1.78 -5.43,-4.53 -0.25,-2.75 1.78,-5.18 4.53,-5.43"
             style="fill:#2a1e17;fill-opacity:1;fill-rule:nonzero;stroke:none"
             id="path34" />
          <path
             d="m 6979.06,2380.37 c -27.58,20.28 -45.68,33.89 -45.68,33.89 7.65,10.19 128.53,138.98 198.51,242.76 0,0 -141.54,-284.94 -152.83,-276.65"
             style="fill:#2a1e17;fill-opacity:1;fill-rule:nonzero;stroke:none"
             id="path36" />
          <path
             d="m 5261.91,3316.51 c 3.64,-6.03 6.92,-10.3 11,-13.23 4.08,-2.95 8.84,-4.02 13.66,-3.98 9.13,0.07 19.79,2.92 38.35,4.32 1.74,0.14 3.52,0.2 5.34,0.2 18,0.03 39.62,-6.65 58.75,-18.88 19.17,-12.22 35.81,-29.89 44.58,-51.51 9.18,-22.5 12.43,-35.83 12.37,-43.19 -0.02,-4.08 -0.83,-6.12 -1.89,-7.65 -1.07,-1.53 -2.78,-2.81 -5.33,-4.26 -0.48,-0.31 -2.66,-1.14 -5.53,-1.92 -10.27,-2.85 -30.14,-6.5 -47.74,-11.05 -8.84,-2.3 -17.14,-4.8 -23.71,-7.74 -3.29,-1.48 -6.16,-3.05 -8.55,-4.95 -2.34,-1.9 -4.44,-4.25 -5.15,-7.62 -0.55,-2.71 1.21,-5.34 3.92,-5.89 2.7,-0.54 5.34,1.22 5.88,3.92 l 0.37,0.59 c 0.61,0.8 2.32,2.16 4.85,3.48 8.93,4.78 26.85,9.27 43.26,12.88 8.24,1.82 16.16,3.48 22.64,5 3.24,0.77 6.13,1.5 8.56,2.23 2.46,0.74 4.39,1.4 6.16,2.38 2.94,1.69 6.11,3.75 8.53,7.18 2.44,3.41 3.76,7.93 3.73,13.42 -0.05,10 -3.79,23.93 -13.11,46.95 -9.74,23.95 -27.87,43.04 -48.46,56.18 -20.61,13.13 -43.72,20.43 -64.13,20.45 -2.06,0 -4.1,-0.07 -6.1,-0.23 -19.16,-1.49 -30.74,-4.35 -37.59,-4.29 -3.66,0.04 -5.62,0.58 -7.87,2.13 -2.25,1.58 -4.91,4.7 -8.21,10.22 -1.42,2.37 -4.49,3.14 -6.86,1.72 -2.37,-1.42 -3.14,-4.49 -1.72,-6.86"
             style="fill:#2a1e17;fill-opacity:1;fill-rule:nonzero;stroke:none"
             id="path38" />
          <path
             d="m 6273.92,884.461 -34.85,58.91 -123.63,-206.07 32.45,-24.961 126.03,172.121"
             style="fill:#f9865f;fill-opacity:1;fill-rule:nonzero;stroke:none"
             id="path40" />
          <path
             d="m 5452.98,1395.47 c 0,0 -64.06,104.16 -36.58,155.19 l 204.37,-21.86 -167.79,-133.33"
             style="fill:#f9865f;fill-opacity:1;fill-rule:nonzero;stroke:none"
             id="path42" />
          <path
             d="m 5452.98,1395.47 12.24,-28.14 -37.75,-147.23 c -4.76,-18.55 1.4,-38.18 15.89,-50.69 l 186.91,276.31 c 17.76,26.24 13.72,61.52 -9.5,83.08 l -41.76,38.8 -126.03,-172.13"
             style="fill:#000000;fill-opacity:1;fill-rule:nonzero;stroke:none"
             id="path44" />
          <path
             d="m 5352.96,3144.07 c 58.53,1.39 132.7,5.1 117.87,49.6 -14.83,44.5 -70.46,155.76 -196.55,122.38 0,0 -44.5,-37.09 11.12,-103.84 55.64,-66.75 67.56,-68.14 67.56,-68.14"
             style="fill:#2a1e33;fill-opacity:1;fill-rule:nonzero;stroke:none"
             id="path46" />
          <path
             d="m 5649.21,1526.34 c 0,0 -99.91,294.98 -15.37,424.5 69.77,106.89 297.73,-66.97 328.96,-90.4 l 163.11,294.57 c 0,0 -37.65,52.79 -130.1,104.47 -92.44,51.69 -474.33,206.48 -653.8,-76.68 -66.33,-104.65 -67.34,-553.72 59.87,-725.83 l 247.33,69.37"
             style="fill:#7595ec;fill-opacity:1;fill-rule:nonzero;stroke:none"
             id="path48" />
          <path
             d="m 5653.94,1527.94 c 0,0.01 -0.75,2.22 -2.09,6.43 -9.38,29.42 -47.01,155.11 -46.98,269.18 -0.03,55.14 8.85,107.41 33.15,144.56 7.62,11.64 17.03,19.56 27.98,24.71 10.95,5.14 23.54,7.47 37.34,7.47 45.83,0.1 104.37,-26.18 153.95,-55 49.66,-28.79 90.52,-59.85 102.51,-68.85 2.21,-1.66 5.34,-1.21 7,1 1.66,2.21 1.21,5.34 -1,7 -12.01,9.01 -53.24,40.37 -103.49,69.5 -50.33,29.1 -109.52,56.25 -158.97,56.35 -14.91,0 -29,-2.52 -41.58,-8.42 -12.58,-5.88 -23.57,-15.19 -32.11,-28.3 -25.97,-39.86 -34.75,-93.86 -34.78,-150.02 0.05,-132.73 49.55,-278.55 49.6,-278.82 0.89,-2.61 3.73,-4.01 6.34,-3.13 2.62,0.89 4.02,3.73 3.14,6.34"
             style="fill:#2a1e17;fill-opacity:1;fill-rule:nonzero;stroke:none"
             id="path50" />
          <path
             d="m 6125.91,2155.01 c -74.18,-78.09 -294.11,-458.49 -343.57,-640.29 -66.15,-243.19 -41.28,-444.89 322.32,-839.81 l 175.75,255.988 c 0,0 -123.57,187.642 -100.5,364.532 33.37,255.9 215.48,504.01 307.62,661.39 l -361.62,198.19"
             style="fill:#7595ec;fill-opacity:1;fill-rule:nonzero;stroke:none"
             id="path52" />
          <path
             d="m 6153.83,2121.95 292.36,-229.45 87.36,132.83 z"
             style="fill:#2a1e17;fill-opacity:1;fill-rule:nonzero;stroke:none"
             id="path54" />
          <path
             d="m 7833.02,2363.2 c 45.59,-9.77 80.33,-27.14 104.21,-52.11 23.87,-24.96 13.02,-37.98 4.34,-45.58 -8.69,-7.6 -42.33,1.08 -71.64,27.14 -29.31,26.04 -36.91,70.55 -36.91,70.55"
             style="fill:#ff8a66;fill-opacity:1;fill-rule:nonzero;stroke:none"
             id="path56" />
          <path
             d="m 6933.38,2414.26 c 7.65,10.19 128.53,138.98 198.51,242.76 0,0 211.55,-237.03 234.49,-244.68 8.53,-2.84 60.39,-2.16 124.79,-1.5 108.85,1.13 253.53,2.22 285.55,-13.79 50.98,-25.49 81.56,-38.23 94.31,-73.92 12.74,-35.68 17.76,-58.98 -12.75,-61.17 -35.68,-2.55 -58.62,43.33 -58.62,43.33 0,0 -29.15,-17.6 -104.49,-45.88 0,0 -271.09,-105.23 -452.28,-54.33 -49.48,13.89 -309.51,209.18 -309.51,209.18"
             style="fill:#f9865f;fill-opacity:1;fill-rule:nonzero;stroke:none"
             id="path58" />
          <path
             d="m 5290.14,3360.96 c -23.26,-8.86 -37.4,-19.44 -23.94,-41.88 13.47,-22.44 19.45,-13.46 58.34,-10.47 38.9,2.99 94.24,-25.43 113.68,-73.3 19.45,-47.86 13.47,-55.34 3,-61.33 -10.48,-5.98 -85.26,-14.95 -88.26,-29.91 -2.99,-14.96 30.31,-59.11 99.12,-56.12 l 16.46,2.99 c 0,0 144.69,-141.33 165.64,-162.27 20.94,-20.95 174.84,-125.21 259.62,-146.4 64.44,-16.11 194.99,4.66 273.45,19.97 38.09,7.43 63.9,13.58 63.9,13.58 0,0 -58.86,106.05 -70.84,269.09 0,0 -140.84,-22.62 -234.43,-43.16 0,0 -218.41,121.77 -324.61,175.61 0,0 -92.74,113.68 -136.12,128.65 -43.38,14.95 -143.6,26.92 -175.01,14.95"
             style="fill:#f9865f;fill-opacity:1;fill-rule:nonzero;stroke:none"
             id="path60" />
          <path
             d="m 6167.25,2802.24 c 38.09,7.43 63.9,13.58 63.9,13.58 0,0 -71.21,89.77 -83.17,252.81 0,0 -32.2,-34.69 -22.19,-127.04 12.59,-116.06 41.46,-139.35 41.46,-139.35"
             style="fill:#2a1e17;fill-opacity:1;fill-rule:nonzero;stroke:none"
             id="path62" />
          <path
             d="m 6144.53,3086.88 c 0,0 1.97,-199.24 55.35,-282.36 l 19.14,7.66 c 0,0 -251.55,-294.28 -332.91,-486.57 -13.31,-31.47 522.29,-373.59 601.42,-368.79 0,0 260.95,398.28 350.2,516.34 l 95.92,-74.33 c 0,0 188.14,190.53 198.24,258.19 0,0 -181.71,221.12 -330.39,285.87 -148.66,64.74 -281.51,175.65 -441.21,172.64 -138.24,-2.6 -215.76,-28.65 -215.76,-28.65"
             style="fill:#fff7c9;fill-opacity:1;fill-rule:nonzero;stroke:none"
             id="path64" />
          <path
             d="m 6933.65,2398.83 -95.92,74.33 15.29,41.63 z"
             style="fill:#2a1e17;fill-opacity:1;fill-rule:nonzero;stroke:none"
             id="path66" />
          <path
             d="m 7079.56,3186.67 c -16.8,-52.23 -65.29,-203.34 -119.39,-221.99 -54.11,-18.65 -110.43,4.77 -110.43,4.77 l -57.63,-29.49 c -6.43,-19.29 -51.91,-35.9 -110.65,-38.16 -43.48,-1.67 -69.96,54.17 -57.08,94.59 5.9,18.56 27.97,110.07 27.97,110.07 0,0 46.64,171.63 89.55,207.07 42.9,35.44 83.23,70.54 197.75,24.25 175.35,-70.89 139.91,-151.11 139.91,-151.11"
             style="fill:#f9865f;fill-opacity:1;fill-rule:nonzero;stroke:none"
             id="path68" />
          <path
             d="m 6731.91,3179.24 c -7.69,-32.08 -41.05,-96.23 -62.86,-84.68 -21.81,11.55 -29.51,41.06 -14.12,97.51 15.4,56.45 28.23,184.75 71.86,207.85 43.62,23.09 62.86,-3.86 62.86,-3.86 0,0 -19.24,93.67 37.21,106.49 0,0 19.24,8.99 11.55,-55.16 0,0 21.8,59.02 92.37,51.32 70.57,-7.7 94.94,-106.49 94.94,-106.49 0,0 5.14,26.94 37.21,26.94 32.08,0 80.83,-47.47 69.29,-100.07 0,0 82.08,25.69 125.73,-39.78 43.62,-65.43 38.49,-137.28 -66.72,-165.51 -110,-29.51 -109.05,98.8 -125.73,115.48 -16.68,16.67 -34.64,35.92 -96.23,12.82 -61.58,-23.09 -125.73,44.91 -125.73,44.91 0,0 -10.27,-82.11 -20.53,-89.81 -10.27,-7.7 -30.79,-17.96 -25.67,20.53 5.14,38.49 11.56,34.64 7.71,44.9 -3.85,10.27 -21.21,42.65 -57.74,14.12 -41.05,-32.08 -15.4,-97.51 -15.4,-97.51"
             style="fill:#2a1e33;fill-opacity:1;fill-rule:nonzero;stroke:none"
             id="path70" />
          <path
             d="m 6752.6,3168.7 c -15.76,13.21 -28.04,33.24 -27.99,54.79 0.01,10.23 2.68,20.91 9.16,31.83 13.63,22.97 32.84,32.04 45.9,31.99 6.49,0 11.13,-2.15 13.42,-5.12 5.71,-7.26 9.52,-17.84 9.52,-30.87 0,-8.56 -1.64,-18.16 -5.47,-28.52 -0.95,-2.59 0.37,-5.47 2.96,-6.43 2.6,-0.95 5.47,0.37 6.43,2.96 4.19,11.37 6.08,22.15 6.08,31.99 0,14.96 -4.37,27.77 -11.66,37.05 -4.84,6.1 -12.69,8.95 -21.28,8.94 -17.43,-0.05 -39.3,-11.39 -54.49,-36.88 -7.36,-12.35 -10.58,-24.94 -10.57,-36.94 0.05,-25.42 14.09,-47.76 31.56,-62.45 2.11,-1.78 5.27,-1.5 7.04,0.61 1.78,2.12 1.5,5.27 -0.61,7.05"
             style="fill:#2a1e33;fill-opacity:1;fill-rule:nonzero;stroke:none"
             id="path72" />
          <path
             d="m 6147.89,712.34 12.25,-28.129 -37.76,-147.25 c -4.75,-18.531 1.4,-38.16 15.88,-50.672 l 186.92,276.301 c 17.75,26.25 13.73,61.519 -9.5,83.082 l -41.76,38.789 -126.03,-172.121"
             style="fill:#000000;fill-opacity:1;fill-rule:nonzero;stroke:none"
             id="path74" />
          <path
             d="m 6794.43,3397.53 c -0.1,0.31 -3.81,12.36 -13.16,26.15 -9.33,13.76 -24.48,29.43 -47.46,36.01 -2.65,0.75 -5.42,-0.78 -6.18,-3.44 -0.75,-2.65 0.78,-5.42 3.44,-6.18 19.93,-5.68 33.38,-19.42 41.92,-32 4.27,-6.28 7.26,-12.22 9.18,-16.56 0.96,-2.17 1.64,-3.93 2.08,-5.14 l 0.49,-1.37 0.13,-0.4 c 0.81,-2.64 3.61,-4.13 6.25,-3.32 2.64,0.82 4.12,3.61 3.31,6.25"
             style="fill:#2a1e33;fill-opacity:1;fill-rule:nonzero;stroke:none"
             id="path76" />
          <path
             d="m 5884.32,2336.75 517.81,723.33 c 1.61,2.25 1.09,5.37 -1.15,6.98 -2.25,1.61 -5.37,1.09 -6.98,-1.16 l -517.81,-723.33 c -1.61,-2.25 -1.09,-5.37 1.15,-6.98 2.25,-1.6 5.37,-1.09 6.98,1.16"
             style="fill:#2a1e17;fill-opacity:1;fill-rule:nonzero;stroke:none"
             id="path78" />
          <path
             d="m 6607.54,3015.44 c -4.06,-5.33 -7.22,-12.91 -9.57,-22.05 -2.33,-9.13 -3.74,-19.79 -3.74,-31.01 0.01,-19.46 4.22,-40.67 15.91,-57.96 11.64,-17.31 31.12,-30.26 59.65,-32.43 7.21,-0.57 14.21,-0.83 20.98,-0.83 75.39,0.02 122.45,32.29 122.95,32.62 2.28,1.56 2.85,4.68 1.29,6.95 -1.56,2.28 -4.68,2.86 -6.95,1.29 l -0.44,-0.29 c -4.84,-3.17 -48.92,-30.59 -116.85,-30.57 -6.51,0 -13.25,0.25 -20.19,0.8 -25.95,2.12 -41.95,13.13 -52.16,28.07 -10.18,14.97 -14.21,34.32 -14.19,52.35 0,10.37 1.32,20.28 3.43,28.54 2.08,8.25 5.05,14.88 7.81,18.42 1.68,2.19 1.27,5.33 -0.92,7.01 -2.19,1.68 -5.33,1.27 -7.01,-0.91"
             style="fill:#2a1e17;fill-opacity:1;fill-rule:nonzero;stroke:none"
             id="path80" />
          <path
             d="m 5461.16,3342.99 c 0.01,-0.01 3.67,-4.86 9.35,-12.61 8.51,-11.63 21.5,-29.75 33.19,-47.49 11.68,-17.67 22.12,-35.32 25.2,-44.71 0.87,-2.62 3.7,-4.04 6.32,-3.16 2.62,0.87 4.04,3.7 3.17,6.32 -2.61,7.75 -8.16,17.95 -15.11,29.39 -20.79,34.15 -54.1,78.22 -54.14,78.29 -1.67,2.2 -4.8,2.64 -7.01,0.98 -2.2,-1.67 -2.64,-4.8 -0.97,-7.01"
             style="fill:#2a1e17;fill-opacity:1;fill-rule:nonzero;stroke:none"
             id="path82" />
          <path
             d="m 7678.18,2291.86 c 0.59,-0.51 16.34,-13.15 46.84,-13.14 19.71,-0.01 45.46,5.29 77,22.16 10.63,5.59 16.2,14.73 16.13,23.89 -0.01,7.81 -3.8,15.22 -10.04,20.58 -6.24,5.37 -15,8.77 -25.2,8.77 -3.94,0 -8.08,-0.51 -12.39,-1.58 -8.52,-2.14 -17.59,-2.96 -26.38,-2.96 -13.2,0 -25.78,1.85 -35,3.72 -4.62,0.93 -8.39,1.86 -11,2.55 -1.3,0.34 -2.31,0.63 -2.99,0.83 l -0.99,0.3 c -2.63,0.83 -5.44,-0.63 -6.27,-3.27 -0.83,-2.63 0.63,-5.44 3.26,-6.27 0.27,-0.07 24.75,-7.84 52.99,-7.86 9.41,0 19.26,0.87 28.81,3.25 3.55,0.89 6.88,1.29 9.96,1.29 7.99,-0.01 14.35,-2.63 18.68,-6.35 4.34,-3.74 6.57,-8.51 6.56,-13 -0.07,-5.2 -2.71,-10.61 -10.85,-15.07 -30.33,-16.22 -54.36,-20.97 -72.28,-20.98 -13.85,0 -24.09,2.85 -30.83,5.62 -3.37,1.39 -5.86,2.77 -7.47,3.76 l -1.76,1.16 -0.38,0.29 -0.06,0.05 -0.92,-1.15 0.93,1.13 -0.01,0.02 -0.92,-1.15 0.93,1.13 c -2.13,1.76 -5.28,1.45 -7.03,-0.68 -1.76,-2.13 -1.45,-5.28 0.68,-7.04"
             style="fill:#2a1e17;fill-opacity:1;fill-rule:nonzero;stroke:none"
             id="path84" />
          <path
             d="m 7842.79,2355.43 c 0,0 0.53,-0.62 1.51,-1.82 3.45,-4.2 12.17,-15.18 19.93,-27.8 7.81,-12.55 14.4,-27.03 14.28,-36.61 l -0.02,-0.89 c -0.1,-2.76 2.06,-5.08 4.82,-5.18 2.76,-0.1 5.07,2.05 5.17,4.81 l 0.03,1.26 c -0.03,7.76 -2.6,15.91 -6.21,24.03 -10.87,24.24 -31.79,48.51 -31.92,48.71 -1.8,2.09 -4.96,2.33 -7.05,0.54 -2.1,-1.8 -2.34,-4.96 -0.54,-7.05"
             style="fill:#2a1e17;fill-opacity:1;fill-rule:nonzero;stroke:none"
             id="path86" />
          <path
             d="m 7292.22,2360.5 0.34,0.44 c 1.81,2.32 10.77,13.41 24.13,24.13 13.36,10.75 31.05,20.97 50.04,22.29 2.76,0.19 4.83,2.59 4.63,5.34 -0.19,2.75 -2.59,4.83 -5.34,4.63 -23.59,-1.73 -43.88,-14.6 -58.38,-26.75 -14.5,-12.2 -23.27,-23.88 -23.42,-24.07 -1.65,-2.21 -1.21,-5.35 1,-7 2.21,-1.66 5.34,-1.21 7,0.99"
             style="fill:#2a1e17;fill-opacity:1;fill-rule:nonzero;stroke:none"
             id="path88" />
          <path
             d="m 5846.44,2966.37 0.19,0.57 c 1.09,3.09 6.86,18.2 19.49,33.62 12.67,15.45 31.97,31.13 60.64,36.27 2.72,0.48 4.53,3.08 4.04,5.8 -0.49,2.72 -3.08,4.53 -5.8,4.04 -33.6,-5.99 -55.75,-25.42 -69.26,-43.11 -13.53,-17.71 -18.7,-33.78 -18.82,-34.13 -0.85,-2.63 0.6,-5.45 3.23,-6.29 2.63,-0.84 5.45,0.6 6.29,3.23"
             style="fill:#2a1e17;fill-opacity:1;fill-rule:nonzero;stroke:none"
             id="path90" />
          <path
             d="m 6011.14,2023.47 -76.56,-146.45 4.43,-2.31 -4.3,2.54 c -0.08,-0.13 -46.3,-78.36 -92.56,-189.61 -46.24,-111.27 -92.6,-255.51 -92.63,-388.18 0,-45.02 5.35,-88.72 17.96,-129.34 0.82,-2.64 3.62,-4.11 6.26,-3.29 2.64,0.81 4.11,3.62 3.29,6.25 -12.24,39.44 -17.51,82.15 -17.51,126.38 -0.03,130.36 45.86,273.75 91.86,384.34 23,55.3 46,102.43 63.25,135.71 8.62,16.64 15.8,29.82 20.82,38.83 2.51,4.51 4.49,7.97 5.83,10.31 1.34,2.33 2.04,3.51 2.04,3.51 l 0.12,0.23 76.56,146.45 c 1.28,2.44 0.33,5.46 -2.12,6.74 -2.44,1.28 -5.47,0.34 -6.74,-2.11"
             style="fill:#2a1e17;fill-opacity:1;fill-rule:nonzero;stroke:none"
             id="path92" />
          <path
             d="m 6243.5,1528.57 248.35,425.73 -4.32,2.52 4.12,-2.84 c 0,0.01 81.38,118.04 166.93,244.41 42.78,63.19 86.6,128.46 121.82,182.12 17.61,26.83 33.07,50.76 45.19,70.09 12.13,19.35 20.87,34.01 25.22,42.69 l -4.47,2.23 4.4,-2.38 114.86,212.51 c 1.31,2.43 0.41,5.47 -2.02,6.78 -2.43,1.31 -5.46,0.41 -6.78,-2.02 l -114.86,-212.51 -0.07,-0.14 c -3.99,-7.98 -12.7,-22.64 -24.75,-41.85 -42.22,-67.35 -125.68,-191.48 -198.54,-298.68 -36.44,-53.61 -70.23,-103.01 -94.91,-139 -12.34,-18 -22.41,-32.64 -29.39,-42.79 -6.98,-10.14 -10.86,-15.77 -10.87,-15.79 l -0.2,-0.31 -248.35,-425.73 c -1.39,-2.38 -0.59,-5.44 1.8,-6.84 2.38,-1.39 5.45,-0.58 6.84,1.8"
             style="fill:#2a1e17;fill-opacity:1;fill-rule:nonzero;stroke:none"
             id="path94" />
          <path
             d="m 5911.98,2290.28 c 0.04,-0.03 110.5,-80.57 237.41,-163.09 63.46,-41.26 131.02,-83.02 191.04,-115.49 60.1,-32.46 112.26,-55.71 146.51,-59.85 2.74,-0.32 5.23,1.64 5.55,4.38 0.33,2.74 -1.63,5.23 -4.37,5.55 -31.24,3.61 -83.4,26.43 -142.93,58.71 -89.45,48.4 -196.35,117.9 -280.81,175.26 -42.24,28.69 -78.87,54.35 -104.95,72.83 -13.03,9.24 -23.43,16.69 -30.56,21.82 -7.14,5.14 -10.99,7.95 -11,7.96 -2.23,1.62 -5.36,1.13 -6.99,-1.1 -1.63,-2.23 -1.14,-5.36 1.1,-6.98"
             style="fill:#2a1e17;fill-opacity:1;fill-rule:nonzero;stroke:none"
             id="path96" />
          <path
             d="m 6139.53,3086.96 v -0.2 c 0,-2.97 0.1,-53.9 6.94,-114.48 6.91,-60.62 20.24,-130.73 47.96,-173.06 1.51,-2.31 4.61,-2.95 6.92,-1.43 2.31,1.52 2.95,4.62 1.43,6.92 -25.97,39.32 -39.68,108.76 -46.38,168.69 -6.77,59.98 -6.87,110.62 -6.87,113.36 v 0.05 c 0.04,2.76 -2.17,5.03 -4.93,5.07 -2.76,0.04 -5.03,-2.16 -5.07,-4.92"
             style="fill:#2a1e17;fill-opacity:1;fill-rule:nonzero;stroke:none"
             id="path98" />
          <path
             d="m 7112.78,2689.86 c -3.16,-19.39 -16.95,-45.68 -36.02,-73.47 -28.58,-41.78 -68.82,-87.35 -101.86,-122.38 -16.53,-17.52 -31.26,-32.41 -41.85,-42.92 -5.3,-5.26 -9.56,-9.41 -12.5,-12.26 -2.93,-2.84 -4.52,-4.35 -4.53,-4.35 -2,-1.9 -2.09,-5.07 -0.19,-7.07 1.91,-2.01 5.07,-2.09 7.07,-0.19 0.07,0.06 46.24,43.86 94.24,98.18 24,27.17 48.45,56.96 67.87,85.34 19.4,28.42 33.87,55.23 37.64,77.48 0.45,2.73 -1.39,5.3 -4.11,5.75 -2.73,0.46 -5.3,-1.38 -5.76,-4.11"
             style="fill:#2a1e17;fill-opacity:1;fill-rule:nonzero;stroke:none"
             id="path100" />
          <path
             d="m 5768.34,1678 c 0,-14.48 -11.74,-26.22 -26.22,-26.22 -14.49,0 -26.23,11.74 -26.23,26.22 0,14.48 11.74,26.23 26.23,26.23 14.48,0 26.22,-11.75 26.22,-26.23"
             style="fill:#2a1e17;fill-opacity:1;fill-rule:nonzero;stroke:none"
             id="path102" />
          <path
             d="m 8202.53,1114.48 4.95,0.72 -12.9,89.24 66.42,-44.16 -33.25,-7.25 c -1.15,-0.25 -2.15,-0.88 -2.87,-1.81 l -26.29,-33.66 3.94,-3.08 4.95,0.72 -4.95,-0.72 3.94,-3.07 25.18,32.24 43.01,9.38 c 1.96,0.42 3.48,1.98 3.85,3.96 0.37,1.97 -0.48,3.97 -2.15,5.08 l -85.55,56.89 c -1.65,1.09 -3.78,1.12 -5.45,0.06 -1.66,-1.05 -2.55,-2.98 -2.27,-4.94 l 14.49,-100.31 c 0.29,-1.99 1.73,-3.6 3.66,-4.12 1.94,-0.52 3.99,0.17 5.23,1.76 l -3.94,3.07"
             style="fill:#2a1e17;fill-opacity:1;fill-rule:nonzero;stroke:none"
             id="path104" />
          <path
             d="m 5368.43,2830.58 c -23.04,20.32 -48.49,31.18 -72.83,31.19 -26.06,0.06 -50.51,-12.73 -67.78,-38.22 -17.32,-25.48 -27.87,-63.39 -27.88,-114.5 0.04,-98.25 38.99,-245.66 147.33,-449.21 108.36,-203.54 286.19,-463.14 564.37,-785.31 187.88,-217.61 362.49,-369.6 514.35,-467.28 151.88,-97.648 280.97,-141.121 378.31,-141.16 49.33,0 90.59,11.23 122.22,32.551 31.63,21.289 53.39,52.699 63.76,92.05 13.55,51.269 19.34,97.869 19.34,139.839 0.01,97.53 -31.31,170.02 -68.79,218.07 -18.75,24.03 -39.02,41.98 -57.77,53.99 -18.8,11.99 -35.92,18.18 -49.3,18.24 -6.3,0 -11.99,-1.43 -16.34,-4.97 -4.38,-3.54 -6.72,-9.16 -6.66,-15.33 0.03,-7.3 2.78,-15.67 8.31,-25.56 5.54,-9.89 13.96,-21.29 25.78,-34.34 60.19,-66.4 151.1,-117.66 260.55,-152.45 109.46,-34.77 237.52,-53.03 372.23,-53.04 209.49,0.01 435.07,44.18 631.53,139.6 97.41,47.32 160.68,100.58 199.6,155.34 38.93,54.74 53.36,110.95 53.34,163.48 -0.01,67.15 -23.38,128.27 -48.6,174.01 -12.61,22.88 -25.71,41.92 -36.66,55.99 -5.48,7.03 -10.42,12.82 -14.53,17.25 -4.14,4.44 -7.3,7.44 -9.8,9.24 -2.25,1.59 -5.37,1.06 -6.97,-1.19 -1.6,-2.25 -1.07,-5.37 1.19,-6.97 1.34,-0.93 4.42,-3.74 8.25,-7.89 13.59,-14.62 38.02,-46.45 58.89,-88.71 20.89,-42.29 38.24,-95.03 38.24,-151.73 -0.02,-50.72 -13.8,-104.62 -51.5,-157.69 -37.71,-53.06 -99.51,-105.34 -195.82,-152.13 -194.83,-94.66 -419.06,-138.61 -627.16,-138.6 -133.8,0 -260.93,18.17 -369.2,52.57 -108.29,34.39 -197.67,85.05 -256.17,149.63 -11.46,12.64 -19.44,23.54 -24.47,32.52 -5.05,8.97 -7.06,16.03 -7.03,20.67 0.07,4 1.17,6.03 3.01,7.6 1.86,1.56 5.16,2.71 9.99,2.7 10.21,0.06 26.24,-5.29 43.91,-16.66 53.21,-34.09 121.96,-120.63 121.95,-263.64 0,-41.05 -5.66,-86.78 -19.01,-137.292 -9.88,-37.297 -30.1,-66.34 -59.68,-86.308 -29.6,-19.961 -68.79,-30.84 -116.63,-30.84 -94.37,-0.039 -222.08,42.531 -372.9,139.57 -150.83,97.01 -324.81,248.37 -512.2,465.4 -277.81,321.75 -455.22,580.83 -563.1,783.48 -107.9,202.62 -146.19,348.88 -146.16,444.51 -0.01,49.76 10.36,85.71 26.15,108.87 15.85,23.15 36.72,33.79 59.51,33.85 21.3,0.01 44.56,-9.58 66.21,-28.69 2.07,-1.83 5.23,-1.63 7.06,0.44 1.82,2.07 1.63,5.23 -0.44,7.06"
             style="fill:#2a1e17;fill-opacity:1;fill-rule:nonzero;stroke:none"
             id="path106" />
          <path
             d="m 8140.26,1281.28 c 0,-14.48 -11.73,-26.23 -26.22,-26.23 -14.49,0 -26.23,11.75 -26.23,26.23 0,14.48 11.74,26.22 26.23,26.22 14.49,0 26.22,-11.74 26.22,-26.22"
             style="fill:#2a1e17;fill-opacity:1;fill-rule:nonzero;stroke:none"
             id="path108" />
          <path
             d="m 7734.9,1062.88 777.32,438.14 c 2.41,1.35 3.26,4.4 1.9,6.81 -1.36,2.4 -4.4,3.25 -6.81,1.9 l -777.32,-438.14 c -2.41,-1.35 -3.26,-4.4 -1.9,-6.81 1.35,-2.4 4.4,-3.26 6.81,-1.9"
             style="fill:#2a1e17;fill-opacity:1;fill-rule:nonzero;stroke:none"
             id="path110" />
          <path
             d="m 5407.52,2805.63 c 0,-14.48 -11.75,-26.23 -26.23,-26.23 -14.48,0 -26.22,11.75 -26.22,26.23 0,14.48 11.74,26.23 26.22,26.23 14.48,0 26.23,-11.75 26.23,-26.23"
             style="fill:#2a1e17;fill-opacity:1;fill-rule:nonzero;stroke:none"
             id="path112" />
          <path
             d="m 6106.22,3347.05 c 0,-31.08 -25.18,-56.26 -56.26,-56.26 -31.07,0 -56.26,25.18 -56.26,56.26 0,31.07 25.19,56.26 56.26,56.26 31.08,0 56.26,-25.19 56.26,-56.26"
             style="fill:#ff6d66;fill-opacity:1;fill-rule:nonzero;stroke:none"
             id="path114" />
          <path
             d="m 5029.05,3776.16 c -13.66,0 -24.73,-11.07 -24.73,-24.73 0,-13.66 11.07,-24.73 24.73,-24.73 13.66,0 24.74,11.07 24.74,24.73 0,13.66 -11.08,24.73 -24.74,24.73"
             style="fill:#a0c6f4;fill-opacity:1;fill-rule:nonzero;stroke:none"
             id="path116" />
          <path
             d="m 8367.76,729.102 c 0,-13.661 -11.07,-24.731 -24.73,-24.731 -13.65,0 -24.73,11.07 -24.73,24.731 0,13.66 11.08,24.738 24.73,24.738 13.66,0 24.73,-11.078 24.73,-24.738"
             style="fill:#fad8b0;fill-opacity:1;fill-rule:nonzero;stroke:none"
             id="path118" />
          <path
             d="m 7901.12,1846.07 -265.87,124.78 c -21.45,10.07 -21.08,40.7 0.61,50.25 l 494.65,217.65 c 7,3.08 14.97,3.12 22,0.1 l 339.76,-145.84 -591.15,-246.94"
             style="fill:#2a1e33;fill-opacity:1;fill-rule:nonzero;stroke:none"
             id="path120" />
          <path
             d="m 7884.66,2256.14 c 0.67,-110.02 16.46,-410.07 16.46,-410.07 l 591.15,246.94 -13.26,417.53 c -0.81,25.62 -27.45,42.16 -50.77,31.53 l -508.98,-231.94 c -21.16,-9.64 -34.75,-30.74 -34.6,-53.99"
             style="fill:#c6cbcb;fill-opacity:1;fill-rule:nonzero;stroke:none"
             id="path122" />
          <path
             d="m 7903.05,1841.46 591.14,246.93 c 1.91,0.8 3.14,2.71 3.07,4.78 l -13.25,417.53 -0.02,0.27 c -0.05,0.38 -0.79,9.47 -5.97,19.06 -2.6,4.79 -6.37,9.74 -11.86,13.5 -5.47,3.78 -12.63,6.25 -21.36,6.23 -5.38,0 -11.35,-0.91 -18,-2.9 -2.64,-0.79 -4.14,-3.58 -3.35,-6.23 0.8,-2.64 3.58,-4.14 6.23,-3.35 5.86,1.76 10.87,2.48 15.12,2.48 6.91,-0.02 11.83,-1.83 15.7,-4.47 5.78,-3.94 9.28,-10.18 11.23,-15.62 0.97,-2.7 1.56,-5.17 1.89,-6.92 l 0.34,-2.03 0.06,-0.51 0.01,-0.1 4.98,0.43 -4.99,-0.16 13.14,-414.09 -587.96,-245.6 c -2.55,-1.07 -3.76,-4 -2.69,-6.54 1.06,-2.55 3.99,-3.75 6.54,-2.69"
             style="fill:#2a1e17;fill-opacity:1;fill-rule:nonzero;stroke:none"
             id="path124" />
          <path
             d="m 8191.85,2144.22 39.91,94.34 c 1.08,2.54 -0.11,5.48 -2.65,6.55 -2.55,1.08 -5.48,-0.11 -6.56,-2.65 l -39.91,-94.34 c -1.08,-2.54 0.11,-5.48 2.66,-6.55 2.54,-1.08 5.47,0.11 6.55,2.65"
             style="fill:#2a1e17;fill-opacity:1;fill-rule:nonzero;stroke:none"
             id="path126" />
          <path
             d="m 8231.76,2144.22 39.91,94.34 c 1.08,2.54 -0.11,5.48 -2.65,6.55 -2.54,1.08 -5.48,-0.11 -6.55,-2.65 l -39.92,-94.34 c -1.07,-2.54 0.12,-5.48 2.66,-6.55 2.54,-1.08 5.48,0.11 6.55,2.65"
             style="fill:#2a1e17;fill-opacity:1;fill-rule:nonzero;stroke:none"
             id="path128" />
          <path
             d="m 5160.41,1141.87 c 0,-13.67 -11.07,-24.74 -24.74,-24.74 -13.66,0 -24.72,11.07 -24.72,24.74 0,13.65 11.06,24.72 24.72,24.72 13.67,0 24.74,-11.07 24.74,-24.72"
             style="fill:#ff6d66;fill-opacity:1;fill-rule:nonzero;stroke:none"
             id="path130" />
          <path
             d="m 7255.35,1019.33 c 0,-18.98 -15.39,-34.361 -34.36,-34.361 -18.99,0 -34.37,15.381 -34.37,34.361 0,18.98 15.38,34.36 34.37,34.36 18.97,0 34.36,-15.38 34.36,-34.36"
             style="fill:#ff6d66;fill-opacity:1;fill-rule:nonzero;stroke:none"
             id="path132" />
          <path
             d="m 5391.99,775.16 c 40.25,-19.301 157.33,-67.988 312.3,-66.969 8.47,0.059 15.04,-7.449 13.97,-15.859 L 5696.68,521.07 c -0.76,-6.101 -5.36,-10.968 -11.41,-12.109 -43.77,-8.211 -220.2,-32.43 -352.17,79.5 -4.13,3.48 -5.79,9.109 -4.39,14.32 l 43.61,163.27 c 2.28,8.531 11.71,12.91 19.67,9.109"
             style="fill:#fff7dc;fill-opacity:1;fill-rule:nonzero;stroke:none"
             id="path134" />
          <path
             d="m 5403.43,721.922 c 0.02,-0.043 19.11,-26.863 41.65,-55.66 11.27,-14.41 23.4,-29.301 34.5,-41.641 11.17,-12.371 20.97,-22.07 28.89,-26.621 3.33,-1.852 7.11,-2.441 11.23,-2.449 11.68,0.058 27.3,4.898 45.01,11.91 52.85,21.051 122.61,62.68 122.73,62.738 2.37,1.41 3.15,4.481 1.74,6.852 -1.42,2.371 -4.49,3.148 -6.86,1.738 0,-0.008 -1.91,-1.137 -5.36,-3.148 -12.1,-7.051 -42.97,-24.7 -75.2,-40.532 -16.11,-7.918 -32.56,-15.379 -47.09,-20.808 -14.48,-5.461 -27.22,-8.801 -34.97,-8.75 -3.1,-0.02 -5.26,0.539 -6.31,1.16 -5.67,3.121 -15.61,12.559 -26.38,24.59 -16.27,18.097 -35.18,42.25 -49.96,61.828 -7.4,9.793 -13.77,18.441 -18.3,24.641 -4.52,6.21 -7.17,9.929 -7.18,9.941 -1.6,2.25 -4.72,2.781 -6.97,1.18 -2.25,-1.602 -2.78,-4.731 -1.17,-6.981"
             style="fill:#2a1e17;fill-opacity:1;fill-rule:nonzero;stroke:none"
             id="path136" />
          <path
             d="m 5579.22,613.801 80.1,-82.34 c 1.92,-1.969 5.09,-2.02 7.07,-0.09 1.98,1.918 2.02,5.09 0.09,7.07 l -80.09,82.329 c -1.93,1.98 -5.09,2.019 -7.07,0.101 -1.98,-1.93 -2.03,-5.09 -0.1,-7.07"
             style="fill:#2a1e17;fill-opacity:1;fill-rule:nonzero;stroke:none"
             id="path138" />
          <path
             d="m 5470.22,637.98 -93.68,-25.468 c -2.66,-0.723 -4.24,-3.473 -3.51,-6.141 0.72,-2.66 3.47,-4.23 6.13,-3.512 l 93.68,25.473 c 2.67,0.719 4.24,3.469 3.52,6.137 -0.73,2.66 -3.47,4.23 -6.14,3.511"
             style="fill:#2a1e17;fill-opacity:1;fill-rule:nonzero;stroke:none"
             id="path140" />
          <path
             d="m 7844.44,2711.65 h -89.48 v 89.48 h 89.48 v -89.48"
             style="fill:#ffe1c0;fill-opacity:1;fill-rule:nonzero;stroke:none"
             id="path142" />
          <path
             d="m 7767.09,1594.14 26.59,-46.06 26.6,-46.07 H 7713.9 l 26.6,46.07 26.59,46.06"
             style="fill:#a0c6f4;fill-opacity:1;fill-rule:nonzero;stroke:none"
             id="path144" />
          <path
             d="m 5616.52,3634.92 5,-0.16 6.93,209.13 v 0.35 l -0.04,2.24 c 0.02,8.13 1.76,12.61 4.13,15.4 2.37,2.79 5.98,4.52 11.24,5.69 34.34,7.6 110.75,24.6 207.17,24.61 62.83,0 134.11,-7.23 207.67,-28.98 9.81,-2.91 14.4,-6.51 16.74,-9.89 2.34,-3.39 2.89,-7.25 2.9,-11.99 0,-1.52 -0.06,-3.11 -0.11,-4.75 v 0.01 l -6.72,-199.38 c -0.18,-5.03 -2.57,-9.43 -6.66,-12.8 -4.08,-3.35 -9.83,-5.48 -16.21,-5.47 -1.4,0 -2.83,0.1 -4.27,0.31 -49.86,7.29 -115.47,10.01 -183.51,10.02 -7.45,0 -14.94,-0.04 -22.42,-0.1 -78.5,-0.67 -148.43,-6.48 -197.71,-15.96 -1.73,-0.34 -3.28,-0.48 -4.67,-0.48 -5.52,0.1 -8.38,1.96 -10.8,5.35 -2.35,3.42 -3.71,8.87 -3.69,15.13 l 0.03,1.54 v 0.02 l -5,0.16 -4.99,0.18 -0.04,-1.9 c 0.02,-7.58 1.48,-14.88 5.41,-20.73 3.86,-5.9 10.74,-9.85 19.08,-9.75 2.09,0 4.27,0.22 6.56,0.66 48.33,9.31 117.87,15.13 195.9,15.78 7.46,0.06 14.91,0.1 22.34,0.1 67.75,0 133.07,-2.74 182.06,-9.92 1.93,-0.28 3.84,-0.41 5.72,-0.41 8.58,0 16.54,2.82 22.55,7.73 5.99,4.88 10.05,12.04 10.31,20.2 l 6.72,199.38 v 0.01 c 0.05,1.6 0.12,3.29 0.12,5.07 0.01,5.4 -0.61,11.79 -4.67,17.67 -4.05,5.87 -11.06,10.54 -22.13,13.8 -74.68,22.08 -146.92,29.39 -210.51,29.39 -97.55,0 -174.87,-17.22 -209.33,-24.84 -6.25,-1.38 -12.29,-3.83 -16.69,-8.98 -4.4,-5.16 -6.54,-12.39 -6.52,-21.88 l 0.05,-2.62 5,0.19 -5,0.17 -6.93,-209.13 v 0.01 l 4.99,-0.18"
             style="fill:#2a1e17;fill-opacity:1;fill-rule:nonzero;stroke:none"
             id="path146" />
          <path
             d="m 5679.74,3665.5 3.8,-3.25 105.82,123.89 117.2,-115.66 3.51,3.56 1.55,4.76 c -11.03,3.53 -29,4.62 -50.91,4.66 -71.08,-0.01 -181.46,-12.99 -181.56,-13 l 0.59,-4.96 3.8,-3.25 -3.8,3.25 0.58,-4.97 c 0.02,0 6.87,0.81 18.3,2.02 34.27,3.64 109.58,10.91 162.09,10.91 21.41,0.03 39.24,-1.32 47.81,-4.17 2.21,-0.72 4.61,0.17 5.82,2.15 1.21,1.99 0.89,4.53 -0.76,6.16 l -121.02,119.43 c -0.99,0.98 -2.33,1.5 -3.72,1.44 -1.39,-0.06 -2.69,-0.69 -3.59,-1.75 l -109.32,-127.97 c -1.33,-1.57 -1.57,-3.8 -0.6,-5.61 0.96,-1.81 2.95,-2.85 4.99,-2.61 l -0.58,4.97"
             style="fill:#2a1e17;fill-opacity:1;fill-rule:nonzero;stroke:none"
             id="path148" />
          <path
             d="m 5859.19,3730.32 85.42,68.37 69.39,-49.52 2.54,-75.22 -106.23,5.09 c -2.76,0.13 -5.1,-2 -5.24,-4.76 -0.13,-2.76 2,-5.1 4.76,-5.23 l 111.65,-5.34 c 1.39,-0.07 2.76,0.45 3.75,1.43 0.99,0.98 1.53,2.34 1.49,3.73 l -2.81,83.11 c -0.05,1.55 -0.83,2.99 -2.09,3.9 l -74.47,53.15 c -1.82,1.3 -4.29,1.23 -6.03,-0.17 l -88.38,-70.73 c -2.16,-1.72 -2.51,-4.87 -0.78,-7.03 1.73,-2.15 4.87,-2.5 7.03,-0.78"
             style="fill:#2a1e17;fill-opacity:1;fill-rule:nonzero;stroke:none"
             id="path150" />
          <path
             d="m 5727.31,3806.24 -4.96,-0.57 0.07,-1.24 c -0.01,-3.13 -1.36,-6.02 -3.91,-8.38 -2.55,-2.33 -6.3,-4.01 -10.77,-4.25 l -1.12,-0.03 c -4.52,-0.01 -8.72,1.51 -11.79,3.89 -3.09,2.38 -4.96,5.48 -5.33,8.79 l -0.07,1.23 c 0,3.13 1.36,6.03 3.91,8.39 2.55,2.33 6.3,4 10.76,4.25 l 1.14,0.03 c 4.51,0.01 8.71,-1.51 11.78,-3.89 3.08,-2.38 4.95,-5.49 5.33,-8.79 l 4.96,0.57 4.97,0.56 c -0.73,6.38 -4.28,11.83 -9.15,15.58 -4.89,3.76 -11.17,5.96 -17.89,5.97 l -1.69,-0.05 c -6.63,-0.36 -12.58,-2.86 -16.96,-6.86 -4.37,-3.97 -7.17,-9.59 -7.16,-15.76 l 0.13,-2.37 c 0.73,-6.37 4.29,-11.82 9.16,-15.57 4.89,-3.77 11.17,-5.97 17.9,-5.97 l 1.67,0.04 c 6.64,0.37 12.59,2.87 16.97,6.87 4.37,3.97 7.16,9.59 7.16,15.75 l -0.14,2.37 -4.97,-0.56"
             style="fill:#2a1e17;fill-opacity:1;fill-rule:nonzero;stroke:none"
             id="path152" />
          <path
             d="m 7730.48,917.922 -4.4,-2.383 73.33,-135.418 0.18,-0.312 c 2.99,-4.688 3.91,-8.02 3.9,-10.309 -0.02,-3 -1.37,-5.34 -4.74,-8.531 -31.3,-29.008 -126.01,-116.918 -264.56,-151.117 -3.17,-0.782 -5.75,-1.09 -7.82,-1.09 -4.33,0.058 -6.26,1.136 -8.08,2.75 -1.79,1.636 -3.28,4.269 -4.92,7.34 l -69.85,129.14 c -0.87,1.617 -1.27,3.309 -1.28,5.098 -0.06,5.34 4.01,11.68 11.17,14.551 38.26,15.48 86.68,41.699 134.69,70.339 49.66,29.641 91.97,59.36 119.84,83.782 2.94,2.547 5.17,3.218 6.98,3.238 1.77,-0.012 3.57,-0.691 5.56,-2.289 1.97,-1.602 3.95,-4.109 5.6,-7.172 l 4.4,2.383 4.39,2.379 c -2.13,3.929 -4.77,7.461 -8.07,10.148 -3.26,2.68 -7.35,4.551 -11.88,4.551 -4.67,0.012 -9.37,-2.008 -13.57,-5.719 -27.14,-23.789 -69.11,-53.32 -118.38,-82.711 -47.74,-28.488 -95.93,-54.55 -133.3,-69.66 -10.53,-4.269 -17.37,-13.719 -17.43,-23.82 0,-3.348 0.8,-6.738 2.48,-9.848 l 69.86,-129.14 c 1.63,-2.981 3.49,-6.704 6.9,-9.911 3.39,-3.242 8.52,-5.492 14.89,-5.429 3.06,0 6.42,0.449 10.22,1.39 141.35,34.907 237.4,124.289 268.96,153.489 4.25,3.879 7.97,9.097 7.94,15.859 -0.01,4.93 -1.87,10.039 -5.46,15.691 l -4.22,-2.691 4.39,2.379 -73.33,135.422 -4.39,-2.379"
             style="fill:#2a1e17;fill-opacity:1;fill-rule:nonzero;stroke:none"
             id="path154" />
          <path
             d="m 7701.69,875.012 -4.92,0.879 -20.92,-116.641 -116.06,29.551 -1.24,-4.84 1.07,-4.891 c 9.18,2.071 22.03,8.762 37.17,17.719 45.09,26.82 107.83,74.18 107.91,74.231 l -3.01,3.992 -4.92,0.879 4.92,-0.879 -3.01,3.988 c -0.02,-0.012 -6.94,-5.23 -17.87,-13.211 -16.38,-11.969 -41.72,-30.09 -65.83,-45.82 -12.05,-7.848 -23.8,-15.11 -33.91,-20.68 -10.06,-5.57 -18.69,-9.418 -23.58,-10.449 -2.27,-0.488 -3.89,-2.469 -3.93,-4.801 -0.04,-2.32 1.51,-4.359 3.76,-4.93 l 121.27,-30.879 c 1.35,-0.339 2.77,-0.109 3.94,0.641 1.17,0.758 1.97,1.949 2.22,3.32 l 21.86,121.938 c 0.36,2.019 -0.55,4.07 -2.3,5.141 -1.75,1.07 -3.99,0.968 -5.63,-0.27 l 3.01,-3.988"
             style="fill:#2a1e17;fill-opacity:1;fill-rule:nonzero;stroke:none"
             id="path156" />
          <path
             d="m 7610.57,767.582 -28.5,-74.25 -60.84,5.52 -28.46,45.07 68.1,35.598 c 2.45,1.281 3.39,4.3 2.12,6.75 -1.28,2.449 -4.3,3.402 -6.75,2.121 l -72.91,-38.121 c -1.24,-0.641 -2.15,-1.79 -2.51,-3.129 -0.37,-1.352 -0.15,-2.789 0.6,-3.969 l 32.67,-51.75 c 0.83,-1.313 2.23,-2.172 3.78,-2.313 l 67.06,-6.078 c 2.22,-0.199 4.32,1.098 5.12,3.188 L 7619.9,764 c 0.99,2.582 -0.3,5.469 -2.87,6.461 -2.58,0.988 -5.47,-0.301 -6.46,-2.879"
             style="fill:#2a1e17;fill-opacity:1;fill-rule:nonzero;stroke:none"
             id="path158" />
          <path
             d="m 7723.78,767.922 4,3 c -0.89,1.199 -1.29,2.488 -1.3,3.957 -0.02,2.723 1.61,6.082 5.09,8.383 2.29,1.519 4.89,2.238 7.27,2.238 3.21,-0.008 5.81,-1.25 7.25,-3.191 0.89,-1.2 1.29,-2.489 1.3,-3.95 0.02,-2.718 -1.61,-6.089 -5.1,-8.39 -2.29,-1.508 -4.88,-2.239 -7.27,-2.231 -3.21,0.012 -5.8,1.242 -7.24,3.184 l -4,-3 -4,-3 c 3.68,-4.883 9.48,-7.192 15.24,-7.184 4.36,0 8.83,1.282 12.79,3.891 5.98,3.961 9.56,10.211 9.58,16.73 0.01,3.461 -1.07,7 -3.3,9.961 -3.68,4.879 -9.48,7.192 -15.25,7.18 -4.36,-0.008 -8.83,-1.289 -12.78,-3.898 -5.99,-3.961 -9.56,-10.211 -9.58,-16.723 -0.01,-3.469 1.07,-7 3.3,-9.957 l 4,3"
             style="fill:#2a1e17;fill-opacity:1;fill-rule:nonzero;stroke:none"
             id="path160" />
          <path
             d="m 7373.48,3229.72 297.95,-228.05 c 6.53,-5 15.89,-3.67 20.79,2.95 l 44.98,60.97 c 4.68,6.36 3.52,15.29 -2.65,20.23 l -293.75,235.04 c -6.56,5.25 -16.18,3.94 -21.11,-2.86 l -49.19,-67.97 c -4.68,-6.46 -3.36,-15.47 2.98,-20.31"
             style="fill:#ffffff;fill-opacity:1;fill-rule:nonzero;stroke:none"
             id="path162" />
          <path
             d="m 7373.48,3229.72 -3.04,-3.97 297.95,-228.05 c 3.56,-2.73 7.8,-4.06 11.97,-4.06 6.02,-0.01 12.01,2.78 15.88,8.01 l 44.98,60.97 c 2.59,3.51 3.85,7.64 3.85,11.7 0.01,5.78 -2.55,11.53 -7.4,15.4 l -293.75,235.04 c -3.62,2.91 -8,4.33 -12.3,4.33 -6.07,0 -12.12,-2.83 -15.98,-8.16 l -49.19,-67.97 c -2.52,-3.47 -3.75,-7.54 -3.75,-11.55 -0.01,-5.92 2.68,-11.8 7.74,-15.67 l 3.04,3.98 3.03,3.97 c -2.5,1.92 -3.8,4.78 -3.81,7.72 0,1.98 0.59,3.95 1.85,5.69 l 49.19,67.97 c 1.91,2.64 4.86,4.01 7.88,4.02 2.14,-0.01 4.24,-0.69 6.06,-2.13 l 293.75,-235.04 c 2.39,-1.92 3.63,-4.72 3.64,-7.6 0,-2.01 -0.61,-4.01 -1.9,-5.76 l -44.98,-60.97 c -1.92,-2.6 -4.84,-3.94 -7.83,-3.95 -2.07,0 -4.12,0.64 -5.9,2 l -297.94,228.05 -3.04,-3.97"
             style="fill:#2a1e17;fill-opacity:1;fill-rule:nonzero;stroke:none"
             id="path164" />
          <path
             d="m 7395.53,3239.89 72.25,-50.7 42.64,50.89 -72.28,60.28 -42.61,-60.47"
             style="fill:#ff6d66;fill-opacity:1;fill-rule:nonzero;stroke:none"
             id="path166" />
          <path
             d="m 7494.99,3169.42 72.34,-57.4 38.78,47.71 -72.82,59.1 -38.3,-49.41"
             style="fill:#fad8b0;fill-opacity:1;fill-rule:nonzero;stroke:none"
             id="path168" />
          <path
             d="m 7591.68,3089.97 72.26,-50.71 34.41,44.23 -68.45,57.27 -38.22,-50.79"
             style="fill:#a0c6f4;fill-opacity:1;fill-rule:nonzero;stroke:none"
             id="path170" />
          <path
             d="m 7967.98,3548.54 67.89,-570.56 c 1.48,-12.52 12.95,-21.38 25.44,-19.67 l 114.96,15.74 c 11.99,1.64 20.55,12.46 19.37,24.51 l -55.72,573.41 c -1.25,12.82 -12.96,21.99 -25.69,20.12 L 7987.1,3573.5 c -12.09,-1.77 -20.57,-12.84 -19.12,-24.96"
             style="fill:#ffffff;fill-opacity:1;fill-rule:nonzero;stroke:none"
             id="path172" />
          <path
             d="m 7967.98,3548.54 -4.97,-0.59 67.89,-570.56 c 1.68,-14.02 13.57,-24.29 27.32,-24.29 1.24,0 2.5,0.08 3.76,0.26 l 114.97,15.74 c 13.75,1.89 23.8,13.63 23.8,27.25 l -0.13,2.69 -55.72,573.42 c -1.41,14.3 -13.43,24.87 -27.38,24.87 -1.33,0.01 -2.67,-0.09 -4.02,-0.29 l -127.12,-18.59 c -13.67,-2.01 -23.56,-13.72 -23.56,-27.22 0,-1.08 0.06,-2.18 0.19,-3.29 v 0.01 l 4.97,0.59 4.96,0.6 -0.12,2.09 c 0,8.57 6.29,16.06 15,17.32 l 127.13,18.6 2.57,0.19 c 8.84,0 16.55,-6.74 17.43,-15.85 l 55.72,-573.41 0.08,-1.73 c 0,-8.64 -6.4,-16.15 -15.16,-17.34 l -114.96,-15.75 -2.41,-0.16 c -8.73,0 -16.34,6.54 -17.39,15.47 l -67.89,570.56 v 0.01 l -4.96,-0.6"
             style="fill:#2a1e17;fill-opacity:1;fill-rule:nonzero;stroke:none"
             id="path174" />
          <path
             d="m 8002.71,3535.2 21.51,-133.45 101.38,7.54 -11.02,143.7 -111.87,-17.79"
             style="fill:#ff6d66;fill-opacity:1;fill-rule:nonzero;stroke:none"
             id="path176" />
          <path
             d="m 8031.56,3350.78 14.27,-140.71 93.78,8.38 -12.92,143.05 -95.13,-10.72"
             style="fill:#91ba83;fill-opacity:1;fill-rule:nonzero;stroke:none"
             id="path178" />
          <path
             d="m 8047.61,3159.8 21.52,-133.45 85.29,9.45 -10.23,136.28 -96.58,-12.28"
             style="fill:#fad8b0;fill-opacity:1;fill-rule:nonzero;stroke:none"
             id="path180" />
          <path
             d="m 7819.77,3427.06 188.01,-552.66 c 3.23,-9.49 13.62,-14.49 23.04,-11.09 l 117.76,42.39 c 9.07,3.26 13.93,13.1 11.03,22.28 l -176.55,558.12 c -3.09,9.77 -13.72,14.96 -23.32,11.41 l -129.23,-47.86 c -9.11,-3.38 -13.88,-13.4 -10.74,-22.59"
             style="fill:#ffffff;fill-opacity:1;fill-rule:nonzero;stroke:none"
             id="path182" />
          <path
             d="m 7819.77,3427.06 -4.74,-1.61 188.02,-552.66 c 3.25,-9.55 12.17,-15.55 21.7,-15.55 2.58,0 5.21,0.44 7.76,1.36 l 117.77,42.4 c 9.32,3.36 15.17,12.14 15.17,21.57 0,2.3 -0.35,4.63 -1.07,6.91 l -176.56,558.13 c -3.11,9.82 -12.16,16.03 -21.86,16.02 -2.65,0 -5.35,-0.46 -7.96,-1.43 l -129.23,-47.86 c -9.22,-3.43 -14.97,-12.16 -14.97,-21.5 0,-2.45 0.4,-4.96 1.23,-7.4 v 0.01 l 4.74,1.61 4.73,1.62 c -0.48,1.39 -0.7,2.78 -0.7,4.16 0.01,5.26 3.24,10.2 8.44,12.12 l 129.23,47.86 c 1.5,0.55 3,0.81 4.49,0.81 5.46,0 10.59,-3.5 12.33,-9.03 l 176.55,-558.13 c 0.41,-1.3 0.61,-2.61 0.61,-3.9 -0.01,-5.31 -3.3,-10.28 -8.56,-12.16 l -117.76,-42.4 c -1.46,-0.52 -2.93,-0.77 -4.38,-0.77 -5.37,0.01 -10.41,3.38 -12.23,8.77 l -188.02,552.66 v 0.01 l -4.73,-1.62"
             style="fill:#2a1e17;fill-opacity:1;fill-rule:nonzero;stroke:none"
             id="path184" />
          <path
             d="m 7857.95,3416.99 48.8,-126.07 97.6,28.47 -40.68,138.26 -105.72,-40.66"
             style="fill:#a0c6f4;fill-opacity:1;fill-rule:nonzero;stroke:none"
             id="path186" />
          <path
             d="m 7924.53,3242.6 43.21,-134.67 89.99,27.7 -42.38,137.24 -90.82,-30.27"
             style="fill:#f9865f;fill-opacity:1;fill-rule:nonzero;stroke:none"
             id="path188" />
          <path
             d="m 7979.94,3059.13 48.8,-126.06 81.47,26.99 -38.35,131.18 -91.92,-32.11"
             style="fill:#fad8b0;fill-opacity:1;fill-rule:nonzero;stroke:none"
             id="path190" />
          <path
             d="m 6402.78,2490.9 h -949.44 c -30.28,0 -54.83,24.54 -54.83,54.83 v 128.42 c 0,30.29 24.55,54.84 54.83,54.84 h 949.44 c 30.29,0 54.84,-24.55 54.84,-54.84 v -128.42 c 0,-30.29 -24.55,-54.83 -54.84,-54.83"
             style="fill:#7595ec;fill-opacity:1;fill-rule:nonzero;stroke:none"
             id="path192" />
          <path
             d="m 6047.06,2622.66 h -517.6 c -10.01,0 -18.11,8.11 -18.11,18.12 0,10 8.1,18.11 18.11,18.11 h 517.6 c 10.01,0 18.12,-8.11 18.12,-18.11 0,-10.01 -8.11,-18.12 -18.12,-18.12"
             style="fill:#ffffff;fill-opacity:1;fill-rule:nonzero;stroke:none"
             id="path194" />
          <path
             d="m 5516.52,2570.72 h 879.92 c 2.76,0 5,2.24 5,5 0,2.76 -2.24,5 -5,5 h -879.92 c -2.76,0 -5,-2.24 -5,-5 0,-2.76 2.24,-5 5,-5"
             style="fill:#2a1e17;fill-opacity:1;fill-rule:nonzero;stroke:none"
             id="path196" />
          <path
             d="m 5081.33,3160.45 -14.99,16.42 -49.6,-45.31 14.99,-16.4 c 6.32,-6.92 17.05,-7.41 23.97,-1.09 l 24.54,22.41 c 6.92,6.32 7.41,17.06 1.09,23.97"
             style="fill:#91ba83;fill-opacity:1;fill-rule:nonzero;stroke:none"
             id="path198" />
          <path
             d="m 4994.84,3266.63 -3.69,-3.37 70.61,-77.31 c 0.85,-0.93 1.25,-2.06 1.25,-3.23 0,-1.32 -0.51,-2.59 -1.56,-3.55 l -48.79,-44.56 c -0.93,-0.85 -2.07,-1.25 -3.23,-1.26 -1.32,0.01 -2.59,0.52 -3.55,1.57 l -70.61,77.3 c -0.85,0.94 -1.25,2.06 -1.25,3.23 0,1.32 0.51,2.59 1.56,3.55 l 48.79,44.56 c 0.93,0.85 2.06,1.25 3.23,1.26 1.32,-0.01 2.59,-0.52 3.55,-1.56 l 3.69,3.37 3.69,3.38 c -2.91,3.18 -6.93,4.82 -10.93,4.81 -3.55,0 -7.15,-1.29 -9.98,-3.87 l -48.79,-44.57 c -3.18,-2.91 -4.82,-6.93 -4.81,-10.93 -0.01,-3.55 1.29,-7.15 3.87,-9.98 l 70.61,-77.3 c 2.9,-3.18 6.93,-4.82 10.93,-4.82 3.54,0 7.15,1.29 9.97,3.87 l 48.8,44.57 c 3.18,2.91 4.82,6.94 4.81,10.93 0.01,3.55 -1.28,7.16 -3.87,9.98 l -70.6,77.3 -3.7,-3.37"
             style="fill:#2a1e17;fill-opacity:1;fill-rule:nonzero;stroke:none"
             id="path200" />
          <path
             d="m 4857.8,2776.58 h -88.71 v 81 h 88.71 v -81"
             style="fill:#ff6d66;fill-opacity:1;fill-rule:nonzero;stroke:none"
             id="path202" />
          <path
             d="m 4764.09,2909.7 v -47.12 h -48.06 c -2.77,0 -5,-2.24 -5,-5 0,-2.76 2.23,-5 5,-5 h 53.06 c 1.32,0 2.61,0.53 3.54,1.46 0.93,0.93 1.46,2.22 1.46,3.54 v 52.12 c 0,2.76 -2.24,5 -5,5 -2.76,0 -5,-2.24 -5,-5"
             style="fill:#2a1e17;fill-opacity:1;fill-rule:nonzero;stroke:none"
             id="path204" />
          <path
             d="m 7780.3,3691.27 h -88.72 v 81.01 h 88.72 v -81.01"
             style="fill:#fad8b0;fill-opacity:1;fill-rule:nonzero;stroke:none"
             id="path206" />
          <path
             d="m 7686.58,3824.4 v -47.12 h -48.05 c -2.77,0 -5,-2.24 -5,-5 0,-2.77 2.23,-5 5,-5 h 53.05 c 1.32,0 2.61,0.53 3.54,1.46 0.93,0.93 1.46,2.22 1.46,3.54 v 52.12 c 0,2.76 -2.24,5 -5,5 -2.76,0 -5,-2.24 -5,-5"
             style="fill:#2a1e17;fill-opacity:1;fill-rule:nonzero;stroke:none"
             id="path208" />
          <g
             id="g210"
             transform="scale(10)">
            <text
               xml:space="preserve"
               transform="matrix(1,0,0,-1,76.0566,306.907)"
               style="font-variant:normal;font-weight:bold;font-size:42.8928px;font-family:Poppins;-inkscape-font-specification:Poppins-Bold;writing-mode:lr-tb;fill:#2a1e33;fill-opacity:1;fill-rule:nonzero;stroke:none"
               id="text216"><tspan
                 x="0 44.050301 69.399902 77.42041 113.49321 139.74323 157.02881"
                 y="0"
                 sodipodi:role="line"
                 id="tspan212">We work</tspan><tspan
                 x="0 26.035599 52.285595 80.122505 97.408112 105.42862 117.00967 145.06096 170.41057 198.46185"
                 y="36.612099"
                 sodipodi:role="line"
                 id="tspan214">your ideas</tspan></text>
            <text
               xml:space="preserve"
               transform="matrix(1,0,0,-1,76.014022,108.9499)"
               style="font-variant:normal;font-weight:bold;font-size:10px;font-family:Poppins;-inkscape-font-specification:Poppins-Bold;writing-mode:lr-tb;fill:#2a1e33;fill-opacity:1;fill-rule:nonzero;stroke:none"
               id="text220"><tspan
                 x="0 5.1596699 7.0297918 12.359871 18.269541 24.179707 26.049822 31.849627 35.879406 41.789577 48.329113 52.139187 54.839382 60.849152 66.759323 68.628952 77.039116 83.158745 87.189018"
                 y="0"
                 sodipodi:role="line"
                 id="tspan218">&gt; see creative work</tspan></text>
          </g>
          <path
             d="M 1368,1911.03 H 842.406 c -45.199,0 -81.84,36.64 -81.84,81.83 v 9.31 c 0,45.19 36.641,81.83 81.84,81.83 H 1368 c 45.2,0 81.84,-36.64 81.84,-81.83 v -9.31 c 0,-45.19 -36.64,-81.83 -81.84,-81.83"
             style="fill:#2a1e33;fill-opacity:1;fill-rule:nonzero;stroke:none"
             id="path222" />
          <g
             id="g224"
             transform="scale(10)">
            <text
               xml:space="preserve"
               transform="matrix(1,0,0,-1,87.2844,195.977)"
               style="font-variant:normal;font-weight:bold;font-size:10px;font-family:Poppins;-inkscape-font-specification:Poppins-Bold;writing-mode:lr-tb;fill:#ffffff;fill-opacity:1;fill-rule:nonzero;stroke:none"
               id="text228"><tspan
                 x="0 7.1201162 9.5703173 12.019536 17.57033 23.250011 24.870134 31.679707 37.339867 41.119171"
                 y="0"
                 sodipodi:role="line"
                 id="tspan226">Click Here</tspan></text>
          </g>
          <g
             id="g230"
             transform="scale(10)">
            <text
               xml:space="preserve"
               transform="matrix(1,0,0,-1,76.0141,237.076)"
               style="font-variant:normal;font-weight:normal;font-size:10px;font-family:Poppins;-inkscape-font-specification:Poppins-Regular;writing-mode:lr-tb;fill:#2a1e33;fill-opacity:1;fill-rule:nonzero;stroke:none"
               id="text236"><tspan
                 x="0 6.8198171 12.770018 17.73975 23.559566 27.039541 29.249504 35.759274 39.149406 41.359371 47.509274 53.659176 56.079102 62.229004 65.269043 67.688965 72.658699 78.608894 82.088867 87.448738 89.658699 95.478516 101.42823 106.39796 108.12794 110.54787 118.49757 124.64748 130.79738 133.2173 141.16701 147.11671 149.53665 156.0464 159.52638 165.47609 167.89601 174.40576 179.3755 181.79543 188.30521 190.72511 196.54494 202.69484 212.74464 219.25439 225.76416 231.91406 237.29393"
                 y="0"
                 sodipodi:role="line"
                 id="tspan232">Description of services, who we are as a company </tspan><tspan
                 x="0 6.5097742 12.65967 19.169443 21.589365 26.559095 32.708984 42.758793 48.708496 51.128426 54.168461 56.378426 58.588387 60.798351 66.748543 70.228523 72.648453 76.038582 81.988792 86.528831 89.918961 92.33889 98.848656 105.35844 111.50834 117.65823 121.04838 123.46829 126.85844 133.00833 138.95853 141.37846 147.19829 153.34819 163.39796 169.90775 176.41751 182.56741"
                 y="12"
                 sodipodi:role="line"
                 id="tspan234">and some filler text about the company</tspan></text>
          </g>
          <path
             d="m 760.141,3514.92 h 143.551 v 10 H 760.141 Z"
             style="fill:#2a1e17;fill-opacity:1;fill-rule:nonzero;stroke:none"
             id="path238" />
          <path
             d="m 5292.62,3276.23 c -167.55,69.45 -328.19,102.05 -468.66,102.05 -144.1,0 -267.06,-34.3 -354.29,-98.73 -87.26,-64.39 -138.44,-159.25 -138.37,-278.53 0.04,-142.68 72.63,-319.97 241.55,-524.3 168.95,-204.33 434.41,-435.79 821.07,-686.56 137.95,-89.35 347.51,-120.23 347.83,-120.34 2.73,-0.41 5.27,1.48 5.68,4.21 0.4,2.73 -1.48,5.28 -4.22,5.68 -0.01,0 -3.2,0.48 -9.15,1.49 -41.63,7.06 -216.54,40.64 -334.7,117.35 -386.06,250.37 -650.77,481.3 -818.81,684.54 -168.07,203.25 -239.29,378.73 -239.25,517.93 0.07,116.4 49.4,207.66 134.31,270.49 84.93,62.78 205.8,96.78 348.35,96.78 138.92,0 298.35,-32.29 464.83,-101.3 2.55,-1.06 5.47,0.15 6.53,2.7 1.06,2.55 -0.15,5.48 -2.7,6.54"
             style="fill:#2a1e17;fill-opacity:1;fill-rule:nonzero;stroke:none"
             id="path240" />
          <path
             d="m 4471.11,3245.97 c 0,-14.48 -11.74,-26.22 -26.22,-26.22 -14.48,0 -26.23,11.74 -26.23,26.22 0,14.48 11.75,26.23 26.23,26.23 14.48,0 26.22,-11.75 26.22,-26.23"
             style="fill:#2a1e17;fill-opacity:1;fill-rule:nonzero;stroke:none"
             id="path242" />
          <path
             d="m 4278.01,3389.9 3.47,-3.6 25.99,24.95 61.05,-34.93 29.22,-90.12 -89.25,37.35 -25.8,68.12 -4.68,-1.77 3.47,-3.6 -3.47,3.6 -4.67,-1.77 26.56,-70.14 c 0.49,-1.28 1.48,-2.31 2.75,-2.84 l 101.27,-42.38 c 1.81,-0.76 3.87,-0.39 5.32,0.93 1.44,1.33 1.97,3.36 1.37,5.22 l -33.17,102.32 c -0.38,1.18 -1.2,2.19 -2.27,2.8 l -65.98,37.75 c -1.92,1.1 -4.34,0.81 -5.94,-0.73 l -28.7,-27.55 c -1.45,-1.39 -1.92,-3.5 -1.21,-5.38 l 4.67,1.77"
             style="fill:#2a1e17;fill-opacity:1;fill-rule:nonzero;stroke:none"
             id="path244" />
          <path
             d="m 4306.71,3417.45 -3.46,3.61 -24.81,-23.81 -9.69,11.76 20.55,19.7 13.76,-14.68 3.65,3.42 -3.46,3.61 3.46,-3.61 3.65,3.42 -17.22,18.37 c -0.91,0.97 -2.18,1.54 -3.51,1.58 -1.34,0.03 -2.63,-0.47 -3.6,-1.39 l -27.55,-26.41 c -1.89,-1.8 -2.06,-4.77 -0.4,-6.79 l 16.07,-19.51 c 0.89,-1.07 2.18,-1.73 3.57,-1.81 1.39,-0.08 2.75,0.42 3.76,1.39 l 28.69,27.54 c 1.97,1.9 2.05,5.04 0.19,7.03 l -3.65,-3.42"
             style="fill:#2a1e17;fill-opacity:1;fill-rule:nonzero;stroke:none"
             id="path246" />
          <path
             d="m 4409.55,3280.75 -65.86,72.35 c -1.86,2.04 -5.02,2.19 -7.06,0.33 -2.04,-1.85 -2.19,-5.02 -0.33,-7.06 l 65.85,-72.35 c 1.86,-2.04 5.02,-2.19 7.07,-0.33 2.04,1.85 2.19,5.02 0.33,7.06"
             style="fill:#2a1e17;fill-opacity:1;fill-rule:nonzero;stroke:none"
             id="path248" />
          <path
             d="m 4565.25,1441.57 71.49,-368.33 c 1.56,-8.07 9.45,-13.3 17.5,-11.59 l 74.12,15.74 c 7.73,1.64 12.78,9.1 11.44,16.89 l -63.69,370.78 c -1.42,8.28 -9.49,13.69 -17.69,11.87 l -81.91,-18.18 c -7.78,-1.73 -12.77,-9.35 -11.26,-17.18"
             style="fill:#ffffff;fill-opacity:1;fill-rule:nonzero;stroke:none"
             id="path250" />
          <path
             d="m 4565.25,1441.57 -4.9,-0.95 71.48,-368.33 c 1.84,-9.44 10.08,-15.96 19.34,-15.96 1.36,0 2.73,0.14 4.1,0.43 l 74.13,15.74 c 9.24,1.97 15.62,10.11 15.62,19.27 0,1.11 -0.1,2.23 -0.29,3.35 l -63.69,370.79 c -1.67,9.64 -10.02,16.38 -19.42,16.38 -1.42,0 -2.85,-0.16 -4.29,-0.48 l -81.9,-18.18 c -9.17,-2.05 -15.45,-10.16 -15.45,-19.25 0,-1.24 0.12,-2.5 0.37,-3.76 l 4.9,0.95 4.91,0.95 -0.18,1.86 c 0,4.46 3.1,8.5 7.62,9.49 l 81.9,18.18 2.12,0.24 c 4.6,0 8.76,-3.33 9.57,-8.08 l 63.69,-370.78 0.14,-1.66 c 0,-4.49 -3.15,-8.53 -7.7,-9.49 l -74.12,-15.74 -2.03,-0.21 c -4.53,0 -8.64,3.22 -9.52,7.86 l -71.49,368.34 -4.91,-0.96"
             style="fill:#2a1e17;fill-opacity:1;fill-rule:nonzero;stroke:none"
             id="path252" />
          <path
             d="m 4588.51,1434.55 20.39,-85.89 65.66,9.77 -14.04,93.05 -72.01,-16.93"
             style="fill:#ff6d66;fill-opacity:1;fill-rule:nonzero;stroke:none"
             id="path254" />
          <path
             d="m 4616.11,1315.82 16.02,-90.96 60.67,9.95 -15.24,92.54 -61.45,-11.53"
             style="fill:#fad8b0;fill-opacity:1;fill-rule:nonzero;stroke:none"
             id="path256" />
          <path
             d="m 4635.69,1192.22 20.39,-85.89 55.1,10.23 -13.17,88.27 -62.32,-12.61"
             style="fill:#a0c6f4;fill-opacity:1;fill-rule:nonzero;stroke:none"
             id="path258" />
          <path
             d="m 6612.1,518.441 1.29,-4.832 297.62,79.672 8.18,-23.242 -295.39,-76.668 -6.86,26.328 -4.84,-1.258 1.29,-4.832 -1.29,4.832 -4.84,-1.261 8.13,-31.168 c 0.69,-2.672 3.42,-4.27 6.09,-3.571 l 305.49,79.289 c 1.35,0.352 2.5,1.262 3.16,2.489 0.65,1.23 0.76,2.703 0.3,4.011 l -11.52,32.739 c -0.87,2.461 -3.49,3.84 -6.01,3.172 L 6610.81,523.27 c -2.66,-0.711 -4.24,-3.438 -3.55,-6.09 l 4.84,1.261"
             style="fill:#2a1e17;fill-opacity:1;fill-rule:nonzero;stroke:none"
             id="path260" />
          <path
             d="m 6565.42,559.172 8.72,-27.422 c 0.84,-2.641 3.65,-4.09 6.28,-3.25 2.63,0.832 4.09,3.648 3.25,6.281 l -8.72,27.418 c -0.84,2.633 -3.65,4.09 -6.28,3.25 -2.63,-0.84 -4.09,-3.648 -3.25,-6.277"
             style="fill:#2a1e17;fill-opacity:1;fill-rule:nonzero;stroke:none"
             id="path262" />
          <path
             d="m 6563.3,538.07 25.49,8.75 c 2.61,0.899 4,3.739 3.11,6.36 -0.9,2.609 -3.74,4 -6.36,3.101 l -25.48,-8.75 c -2.62,-0.89 -4.01,-3.742 -3.11,-6.351 0.9,-2.61 3.74,-4 6.35,-3.11"
             style="fill:#2a1e17;fill-opacity:1;fill-rule:nonzero;stroke:none"
             id="path264" />
          <path
             d="m 6550.76,454.43 16.44,-51.731 c 0.83,-2.64 3.64,-4.09 6.28,-3.258 2.63,0.84 4.08,3.649 3.25,6.278 l -16.44,51.742 c -0.83,2.629 -3.65,4.09 -6.28,3.25 -2.63,-0.832 -4.08,-3.641 -3.25,-6.281"
             style="fill:#2a1e17;fill-opacity:1;fill-rule:nonzero;stroke:none"
             id="path266" />
          <path
             d="m 6543.04,418.379 45.39,14.422 c 2.63,0.84 4.09,3.648 3.25,6.281 -0.84,2.629 -3.65,4.09 -6.28,3.25 l -45.39,-14.422 c -2.63,-0.84 -4.09,-3.648 -3.25,-6.281 0.83,-2.629 3.65,-4.09 6.28,-3.25"
             style="fill:#2a1e17;fill-opacity:1;fill-rule:nonzero;stroke:none"
             id="path268" />
          <path
             d="m 6481.72,539.84 21.44,-68.508 c 0.82,-2.641 3.63,-4.102 6.26,-3.281 2.64,0.828 4.11,3.629 3.28,6.269 l -21.43,68.512 c -0.83,2.637 -3.63,4.098 -6.27,3.277 -2.63,-0.82 -4.1,-3.629 -3.28,-6.269"
             style="fill:#2a1e17;fill-opacity:1;fill-rule:nonzero;stroke:none"
             id="path270" />
          <path
             d="m 6466.71,493.91 63.61,20.301 c 2.63,0.84 4.08,3.648 3.24,6.281 -0.84,2.637 -3.65,4.09 -6.28,3.246 l -63.61,-20.297 c -2.64,-0.839 -4.09,-3.66 -3.25,-6.293 0.84,-2.628 3.65,-4.078 6.29,-3.238"
             style="fill:#2a1e17;fill-opacity:1;fill-rule:nonzero;stroke:none"
             id="path272" />
          <path
             d="m 4409.48,3800.05 1.38,3.06 -188.33,85.02 5.62,15.53 185.9,-85.62 -7.62,-16.59 3.05,-1.4 1.38,3.06 -1.38,-3.06 3.05,-1.4 9.01,19.63 c 0.78,1.69 0.04,3.67 -1.64,4.45 l -192.26,88.55 -2.7,0.05 -1.86,-1.96 -7.92,-21.88 c -0.59,-1.65 0.18,-3.48 1.78,-4.2 L 4408.1,3797 c 1.68,-0.76 3.66,-0.02 4.43,1.65 l -3.05,1.4"
             style="fill:#2a1e17;fill-opacity:1;fill-rule:nonzero;stroke:none"
             id="path274" />
          <path
             d="m 4416.42,3759.09 7.12,17.94 c 0.68,1.72 -0.16,3.67 -1.88,4.35 -1.72,0.69 -3.67,-0.15 -4.35,-1.88 l -7.13,-17.94 c -0.68,-1.72 0.16,-3.67 1.88,-4.35 1.72,-0.68 3.67,0.16 4.36,1.88"
             style="fill:#2a1e17;fill-opacity:1;fill-rule:nonzero;stroke:none"
             id="path276" />
          <path
             d="m 4426.48,3769.14 -16.95,6.28 c -1.74,0.64 -3.67,-0.24 -4.31,-1.98 -0.64,-1.74 0.24,-3.67 1.98,-4.31 l 16.95,-6.28 c 1.73,-0.64 3.66,0.24 4.31,1.98 0.64,1.74 -0.25,3.67 -1.98,4.31"
             style="fill:#2a1e17;fill-opacity:1;fill-rule:nonzero;stroke:none"
             id="path278" />
          <path
             d="m 4468.5,3807.23 13.44,33.85 c 0.68,1.72 -0.16,3.67 -1.88,4.35 -1.72,0.68 -3.67,-0.16 -4.35,-1.88 l -13.44,-33.84 c -0.68,-1.72 0.16,-3.67 1.88,-4.36 1.72,-0.68 3.67,0.16 4.35,1.88"
             style="fill:#2a1e17;fill-opacity:1;fill-rule:nonzero;stroke:none"
             id="path280" />
          <path
             d="m 4487.82,3822.68 -29.68,11.78 c -1.72,0.69 -3.67,-0.15 -4.36,-1.87 -0.68,-1.73 0.16,-3.68 1.88,-4.36 l 29.68,-11.79 c 1.73,-0.68 3.67,0.16 4.36,1.88 0.68,1.72 -0.16,3.67 -1.88,4.36"
             style="fill:#2a1e17;fill-opacity:1;fill-rule:nonzero;stroke:none"
             id="path282" />
          <path
             d="m 4468.08,3733.58 17.96,44.68 c 0.69,1.71 -0.14,3.67 -1.86,4.36 -1.72,0.69 -3.67,-0.14 -4.36,-1.86 l -17.97,-44.68 c -0.69,-1.72 0.15,-3.67 1.86,-4.36 1.72,-0.69 3.68,0.14 4.37,1.86"
             style="fill:#2a1e17;fill-opacity:1;fill-rule:nonzero;stroke:none"
             id="path284" />
          <path
             d="m 4495.38,3751.05 -41.65,16.47 c -1.72,0.68 -3.67,-0.16 -4.35,-1.88 -0.68,-1.72 0.16,-3.67 1.89,-4.35 l 41.65,-16.47 c 1.72,-0.68 3.67,0.16 4.35,1.88 0.68,1.72 -0.16,3.67 -1.89,4.35"
             style="fill:#2a1e17;fill-opacity:1;fill-rule:nonzero;stroke:none"
             id="path286" />
          <path
             d="m 5123.87,2185.63 c -134.75,97.02 -267.14,247.78 -209.07,402.64 0,0 92.91,61.94 240.03,-15.49 147.12,-77.43 147.12,-77.43 147.12,-77.43 l -178.08,-309.72"
             style="fill:#fad8b0;fill-opacity:1;fill-rule:nonzero;stroke:none"
             id="path288" />
          <path
             d="m 5062.78,1539.35 c -60.63,28.66 -319.5,163.42 -365.55,393.71 -39.8,198.98 112.35,467.21 188.58,585.72 -4.9,-157.31 153.08,-290.44 229.3,-345.32 77.19,-55.58 133.97,-82.77 212.31,-112.18 l -264.64,-521.93"
             style="fill:#ffffff;fill-opacity:1;fill-rule:nonzero;stroke:none"
             id="path290" />
          <path
             d="m 4914.8,2588.27 c 0,0 -286.48,-387.15 -232.28,-658.15 54.2,-271 387.15,-410.37 387.15,-410.37 l 278.74,549.74 c -87.11,31.95 -143.7,57.94 -224.54,116.14 -134.75,97.02 -267.14,247.78 -209.07,402.64 z m -40.58,-116.28 c 16.52,-104.55 96.32,-212.93 232.12,-310.7 73.33,-52.79 128.46,-80.38 200.16,-108.1 l -250.45,-493.94 c -76.3,37.97 -302.09,166.6 -344.12,376.76 -34.94,174.69 83.52,406.41 162.29,535.98"
             style="fill:#fad8b0;fill-opacity:1;fill-rule:nonzero;stroke:none"
             id="path292" />
          <path
             d="m 4834.49,2362.76 c 0.05,-0.39 4.29,-39.79 28.24,-89.81 23.93,-49.99 67.69,-110.67 146.56,-152.9 2.43,-1.31 5.46,-0.39 6.77,2.04 1.3,2.44 0.39,5.47 -2.05,6.77 -76.65,41.07 -118.98,99.82 -142.26,148.41 -11.64,24.29 -18.48,46.02 -22.4,61.64 -1.97,7.8 -3.2,14.08 -3.94,18.38 -0.37,2.15 -0.62,3.81 -0.77,4.92 -0.15,1.11 -0.2,1.61 -0.21,1.61 -0.29,2.75 -2.75,4.74 -5.5,4.44 -2.75,-0.29 -4.73,-2.76 -4.44,-5.5"
             style="fill:#2a1e17;fill-opacity:1;fill-rule:nonzero;stroke:none"
             id="path294" />
          <path
             d="m 5092.61,2064.5 155.52,-83.31 c 2.43,-1.31 5.46,-0.39 6.77,2.04 1.3,2.44 0.38,5.47 -2.05,6.77 l -155.52,83.31 c -2.43,1.31 -5.46,0.39 -6.77,-2.04 -1.3,-2.44 -0.38,-5.47 2.05,-6.77"
             style="fill:#2a1e17;fill-opacity:1;fill-rule:nonzero;stroke:none"
             id="path296" />
          <path
             d="m 4857.12,2139.06 c 0.3,-0.69 51.05,-112.94 213.58,-185.8 2.52,-1.13 5.48,0 6.61,2.52 1.13,2.52 0,5.48 -2.52,6.6 -79.84,35.8 -132.01,81.15 -164.24,117.48 -16.11,18.17 -27.23,34.09 -34.3,45.42 -3.54,5.66 -6.06,10.18 -7.69,13.26 -0.81,1.54 -1.4,2.72 -1.79,3.5 l -0.41,0.87 -0.12,0.26 c -1.13,2.51 -4.09,3.64 -6.61,2.5 -2.52,-1.13 -3.64,-4.09 -2.51,-6.61"
             style="fill:#2a1e17;fill-opacity:1;fill-rule:nonzero;stroke:none"
             id="path298" />
          <path
             d="m 4728.94,2124.22 c 0.02,-0.28 1.42,-29.8 12.74,-64.5 11.32,-34.63 32.63,-74.85 73.33,-95.27 2.47,-1.23 5.47,-0.23 6.71,2.24 1.23,2.47 0.23,5.47 -2.24,6.71 -37.06,18.47 -57.4,56.01 -68.29,89.42 -5.45,16.67 -8.52,32.21 -10.23,43.54 -0.85,5.67 -1.36,10.29 -1.66,13.47 -0.14,1.59 -0.24,2.82 -0.3,3.65 l -0.07,1.21 c -0.13,2.76 -2.47,4.89 -5.23,4.76 -2.76,-0.13 -4.89,-2.48 -4.76,-5.23"
             style="fill:#2a1e17;fill-opacity:1;fill-rule:nonzero;stroke:none"
             id="path300" />
          <path
             d="m 4906.69,2530.4 c -0.01,-0.16 -0.2,-2.22 -0.2,-6.05 -0.07,-30.12 12.11,-169.22 214.12,-342.51 2.1,-1.8 5.25,-1.56 7.05,0.54 1.8,2.09 1.56,5.25 -0.54,7.05 -200.07,171.82 -210.56,307.46 -210.63,334.92 0,1.75 0.04,3.06 0.08,3.91 l 0.06,0.94 0.02,0.24 c 0.26,2.75 -1.75,5.19 -4.5,5.45 -2.75,0.27 -5.19,-1.74 -5.46,-4.49"
             style="fill:#2a1e17;fill-opacity:1;fill-rule:nonzero;stroke:none"
             id="path302" />
          <path
             d="m 4995.37,2497.16 0.12,0.01 c 0.33,0.01 1.27,0.06 2.81,0.06 14.35,-0.02 79.97,-3.92 171.46,-71.31 2.22,-1.64 5.35,-1.17 6.99,1.06 1.64,2.22 1.16,5.35 -1.06,6.99 -93.18,68.68 -161.2,73.28 -177.39,73.26 -2.31,0 -3.57,-0.09 -3.69,-0.1 -2.76,-0.21 -4.82,-2.62 -4.61,-5.37 0.22,-2.75 2.62,-4.81 5.38,-4.6"
             style="fill:#2a1e17;fill-opacity:1;fill-rule:nonzero;stroke:none"
             id="path304" />
          <path
             d="m 4650.44,2024.2 c -0.38,-6.1 -0.67,-13.48 -0.67,-21.99 -0.01,-48.38 9.33,-133.28 63.91,-225.97 54.56,-92.7 154.33,-192.99 334.36,-272.27 2.53,-1.11 5.48,0.03 6.59,2.56 1.12,2.53 -0.03,5.48 -2.56,6.59 -178.44,78.62 -276.31,177.41 -329.77,268.19 -53.46,90.79 -62.53,173.78 -62.53,220.9 0,8.28 0.28,15.45 0.65,21.36 0.17,2.76 -1.92,5.13 -4.68,5.31 -2.75,0.17 -5.13,-1.93 -5.3,-4.68"
             style="fill:#2a1e17;fill-opacity:1;fill-rule:nonzero;stroke:none"
             id="path306" />
          <path
             d="m 7145.73,2173.69 -165.42,-331.52 c 0,0 112.2,-41.29 24.48,-169.9 0,0 207.38,-86 343.07,137.36 135.69,223.37 -202.13,364.06 -202.13,364.06"
             style="fill:#91ba83;fill-opacity:1;fill-rule:nonzero;stroke:none"
             id="path308" />
          <path
             d="m 6767.13,1160.53 c -83.71,0 -172.05,34.18 -262.76,101.64 l 309.46,512.62 184.05,-115.89 1.17,-0.49 c 1.71,-0.71 42.68,-17.41 100.51,-17.42 h 0.01 c 46.5,0 105.17,10.86 162.33,51.3 l -226.2,-386.98 c -0.52,-0.75 -97.91,-144.77 -268.55,-144.78 h -0.02"
             style="fill:#ffffff;fill-opacity:1;fill-rule:nonzero;stroke:none"
             id="path310" />
          <path
             d="M 7347.86,1809.63 C 7271.19,1683.44 7171.66,1656 7099.56,1656 c -55.51,0 -94.77,16.27 -94.77,16.27 l -195.9,123.36 -324.34,-537.27 c 108.61,-83.72 203.34,-112.83 282.6,-112.83 181.2,0 281.5,152.21 281.5,152.21 z m -529.09,-55.67 170.04,-107.08 2.15,-1.35 2.35,-0.98 c 1.83,-0.75 45.47,-18.55 106.25,-18.55 35.48,0 77.67,5.96 121.05,25.38 l -197.37,-337.66 c -6.45,-9.38 -98.08,-138.19 -256.09,-138.19 -77.07,0 -158.66,30.48 -242.83,90.66 l 294.45,487.77"
             style="fill:#96bd89;fill-opacity:1;fill-rule:nonzero;stroke:none"
             id="path312" />
          <path
             d="m 6978.65,1837.45 0.58,-0.21 c 3.11,-1.19 18.19,-7.42 32.16,-19.76 14,-12.4 26.78,-30.45 26.8,-56.18 0.01,-22.03 -9.47,-50.35 -37.33,-85.95 -1.7,-2.18 -1.32,-5.32 0.85,-7.02 2.18,-1.7 5.32,-1.32 7.02,0.85 28.73,36.7 39.45,67.13 39.46,92.12 0.02,31.25 -16.87,52.92 -33.27,66.3 -16.44,13.46 -32.62,19.16 -32.94,19.28 -2.61,0.92 -5.46,-0.44 -6.38,-3.05 -0.92,-2.6 0.44,-5.46 3.05,-6.38"
             style="fill:#2a1e17;fill-opacity:1;fill-rule:nonzero;stroke:none"
             id="path314" />
          <path
             d="m 6801.67,1803.46 c 0.09,-0.08 41.93,-38.41 95.59,-76.83 26.83,-19.21 56.62,-38.45 85.74,-52.97 29.13,-14.49 57.54,-24.37 82.2,-24.42 l 0.99,0.01 c 46.9,0.53 98.06,6.35 145.87,26.24 47.8,19.87 92.18,53.97 124.89,110.42 1.39,2.39 0.57,5.45 -1.81,6.83 -2.39,1.39 -5.45,0.58 -6.84,-1.81 -31.65,-54.53 -73.99,-86.99 -120.09,-106.21 -46.08,-19.19 -95.97,-24.96 -142.12,-25.47 l -0.89,-0.01 c -21.94,-0.04 -49.36,9.19 -77.74,23.37 -42.62,21.23 -87.49,53.33 -121.59,80.09 -17.06,13.38 -31.44,25.43 -41.54,34.13 -5.05,4.35 -9.04,7.85 -11.75,10.27 -2.72,2.42 -4.15,3.73 -4.15,3.74 -2.04,1.86 -5.2,1.72 -7.07,-0.31 -1.86,-2.04 -1.72,-5.2 0.31,-7.07"
             style="fill:#2a1e17;fill-opacity:1;fill-rule:nonzero;stroke:none"
             id="path316" />
          <path
             d="m 6822.34,1604.27 c 0.43,-0.25 86.54,-77.15 195.18,-77.32 17.44,0 35.45,2.01 53.73,6.67 2.67,0.68 4.29,3.41 3.6,6.08 -0.68,2.68 -3.4,4.29 -6.08,3.61 -17.42,-4.44 -34.58,-6.36 -51.25,-6.36 -51.9,-0.01 -99.13,18.64 -133.36,37.42 -17.1,9.37 -30.95,18.76 -40.49,25.78 -4.77,3.51 -8.47,6.43 -10.96,8.46 -1.24,1.02 -2.19,1.81 -2.81,2.35 l -0.92,0.79 c -2.06,1.83 -5.22,1.64 -7.05,-0.42 -1.84,-2.07 -1.65,-5.23 0.41,-7.06"
             style="fill:#2a1e17;fill-opacity:1;fill-rule:nonzero;stroke:none"
             id="path318" />
          <path
             d="m 6943.83,1450.93 c 0.49,-0.35 29.28,-21.88 75.29,-21.91 21.73,0 47.24,4.87 75.08,18.99 2.47,1.25 3.45,4.26 2.2,6.72 -1.25,2.46 -4.26,3.45 -6.72,2.2 -26.48,-13.42 -50.32,-17.9 -70.56,-17.91 -21.41,0 -38.82,5.04 -50.87,10.07 -6.02,2.51 -10.69,5.02 -13.82,6.88 -1.57,0.92 -2.75,1.69 -3.53,2.21 l -0.85,0.59 -0.23,0.16 c -2.21,1.66 -5.34,1.21 -7,-1 -1.65,-2.21 -1.2,-5.34 1.01,-7"
             style="fill:#2a1e17;fill-opacity:1;fill-rule:nonzero;stroke:none"
             id="path320" />
          <path
             d="m 6664.88,1388.27 c 0.46,-0.42 80.42,-79.93 215.15,-79.99 44.4,0 94.67,8.68 149.77,31.65 2.55,1.06 3.76,3.98 2.7,6.53 -1.07,2.55 -3.99,3.76 -6.54,2.7 -53.94,-22.48 -102.84,-30.87 -145.93,-30.88 -65.33,0 -117.4,19.33 -153.18,38.67 -17.88,9.66 -31.67,19.33 -40.96,26.54 -4.65,3.61 -8.17,6.61 -10.51,8.69 -1.17,1.04 -2.05,1.85 -2.62,2.39 l -0.83,0.79 c -1.96,1.95 -5.12,1.94 -7.07,-0.02 -1.94,-1.96 -1.94,-5.12 0.02,-7.07"
             style="fill:#2a1e17;fill-opacity:1;fill-rule:nonzero;stroke:none"
             id="path322" />
          <path
             d="m 6741.5,1523.2 c 0.05,-0.04 14.35,-10.27 33.18,-22.15 18.87,-11.9 42.12,-25.44 60.68,-32.22 2.59,-0.95 5.46,0.39 6.41,2.98 0.94,2.6 -0.39,5.47 -2.99,6.41 -17.13,6.23 -40.21,19.56 -58.76,31.28 -9.29,5.87 -17.48,11.33 -23.34,15.33 -5.86,4 -9.36,6.5 -9.37,6.5 -2.24,1.61 -5.37,1.09 -6.97,-1.16 -1.61,-2.24 -1.09,-5.37 1.16,-6.97"
             style="fill:#2a1e17;fill-opacity:1;fill-rule:nonzero;stroke:none"
             id="path324" />
          <path
             d="m 7172.59,2072.72 0.27,-0.1 c 3.3,-1.13 34.55,-12.58 66.63,-43.63 32.08,-31.09 65.12,-81.61 72.44,-161.9 0.25,-2.75 2.69,-4.78 5.44,-4.53 2.75,0.25 4.77,2.68 4.52,5.43 -7.71,85.35 -44.14,139.15 -78.68,171.26 -34.55,32.15 -67.07,42.82 -67.52,42.97 -2.62,0.86 -5.44,-0.57 -6.3,-3.2 -0.86,-2.62 0.57,-5.44 3.2,-6.3"
             style="fill:#2a1e17;fill-opacity:1;fill-rule:nonzero;stroke:none"
             id="path326" />
          <path
             d="m 7234.02,1866.86 0.14,-0.22 c 1.63,-2.61 16.33,-27.59 16.3,-62.65 -0.06,-31.62 -11.62,-71.57 -56.13,-112.4 -2.04,-1.87 -2.18,-5.03 -0.31,-7.07 1.86,-2.03 5.02,-2.17 7.06,-0.31 46.38,42.38 59.45,85.65 59.38,119.78 -0.03,40.41 -17.77,67.83 -18.04,68.29 -1.5,2.32 -4.59,2.99 -6.91,1.49 -2.32,-1.5 -2.99,-4.59 -1.49,-6.91"
             style="fill:#2a1e17;fill-opacity:1;fill-rule:nonzero;stroke:none"
             id="path328" />
          <path
             d="m 6493.11,1229.21 c 0.43,-0.23 128.35,-110.22 283.21,-110.39 90.56,-0.1 190.18,38.28 276.59,157.68 1.62,2.24 1.12,5.36 -1.12,6.98 -2.23,1.62 -5.36,1.12 -6.98,-1.11 -85.05,-117.18 -180.77,-153.45 -268.49,-153.55 -75.02,-0.02 -144.31,26.93 -194.79,54 -25.23,13.53 -45.76,27.06 -59.95,37.2 -7.1,5.06 -12.61,9.28 -16.34,12.22 -1.86,1.47 -3.28,2.62 -4.23,3.4 -0.94,0.78 -1.39,1.16 -1.39,1.17 -2.1,1.79 -5.25,1.55 -7.05,-0.55 -1.8,-2.1 -1.55,-5.25 0.55,-7.05"
             style="fill:#2a1e17;fill-opacity:1;fill-rule:nonzero;stroke:none"
             id="path330" />
          <path
             d="m 4185.51,2272.18 h 74.64 c 2.76,0 5,2.24 5,5 0,2.76 -2.24,5 -5,5 h -74.64 c -2.76,0 -5,-2.24 -5,-5 0,-2.76 2.24,-5 5,-5"
             style="fill:#ff6d66;fill-opacity:1;fill-rule:nonzero;stroke:none"
             id="path332" />
          <path
             d="m 8343.03,3169.84 h 74.64 c 2.76,0 5,2.24 5,5 0,2.77 -2.24,5 -5,5 h -74.64 c -2.76,0 -5,-2.23 -5,-5 0,-2.76 2.24,-5 5,-5"
             style="fill:#ff6d66;fill-opacity:1;fill-rule:nonzero;stroke:none"
             id="path334" />
          <path
             d="m 6341.58,3681.91 h 74.6289 v 10 H 6341.58 Z"
             style="fill:#fad8b0;fill-opacity:1;fill-rule:nonzero;stroke:none"
             id="path336" />
          <path
             d="m 8484.63,2782.82 73.46,-13.2 1.77,9.85 -73.46,13.19"
             style="fill:#fad8b0;fill-opacity:1;fill-rule:nonzero;stroke:none"
             id="path338" />
          <path
             d="m 5553.79,920.492 h 74.63 c 2.76,0 5,2.238 5,5 0,2.758 -2.24,5 -5,5 h -74.63 c -2.76,0 -5,-2.242 -5,-5 0,-2.762 2.24,-5 5,-5"
             style="fill:#a0c6f4;fill-opacity:1;fill-rule:nonzero;stroke:none"
             id="path340" />
          <g
             id="g342"
             transform="scale(10)">
            <text
               xml:space="preserve"
               transform="matrix(1,0,0,-1,435.091,462.409)"
               style="font-variant:normal;font-weight:normal;font-size:10px;font-family:Poppins;-inkscape-font-specification:Poppins-Regular;writing-mode:lr-tb;fill:#2a1e33;fill-opacity:1;fill-rule:nonzero;stroke:none"
               id="text346"><tspan
                 x="0 6.4101462 12.310048 22.109854"
                 y="0"
                 sodipodi:role="line"
                 id="tspan344">Home</tspan></text>
            <text
               xml:space="preserve"
               transform="matrix(1,0,0,-1,490.9121,462.95236)"
               style="font-variant:normal;font-weight:bold;font-size:10px;font-family:Poppins;-inkscape-font-specification:Poppins-Bold;writing-mode:lr-tb;fill:#2a1e33;fill-opacity:1;fill-rule:nonzero;stroke:none"
               id="text350"><tspan
                 x="0 6.8700981 13.160147 19.030245 25.269512 28.83005 30.449171 36.689415"
                 y="0"
                 sodipodi:role="line"
                 id="tspan348">About us</tspan></text>
            <text
               xml:space="preserve"
               transform="matrix(1,0,0,-1,559.0238,462.95236)"
               style="font-variant:normal;font-weight:normal;font-size:10px;font-family:Poppins;-inkscape-font-specification:Poppins-Regular;writing-mode:lr-tb;fill:#2a1e33;fill-opacity:1;fill-rule:nonzero;stroke:none"
               id="text354"><tspan
                 x="0 7.280293 13.540049 15.5 17.459951 23.15917 26.389658 55.757057 62.976765 68.877159 74.776573 77.917206 84.176964 89.746277 92.886909 95.056816 100.95721 134.76131 140.13141 145.8316 152.09135 155.32086 160.89116"
                 y="0"
                 sodipodi:role="line"
                 id="tspan352">GalleryContact usSearch</tspan></text>
          </g>
          <path
             d="m 8334.73,4597.41 h -831.99 c -29.96,0 -54.25,24.29 -54.25,54.25 v 5.31 c 0,29.97 24.29,54.26 54.25,54.26 h 831.99 c 29.97,0 54.25,-24.29 54.25,-54.26 v -5.31 c 0,-29.96 -24.28,-54.25 -54.25,-54.25"
             style="fill:#e3e6e6;fill-opacity:1;fill-rule:nonzero;stroke:none"
             id="path356" />
          <path
             d="m 1960.4,1476.9 c 0,-87.83 -71.21,-159.04 -159.04,-159.04 -87.84,0 -159.04,71.21 -159.04,159.04 0,87.85 71.2,159.05 159.04,159.05 87.83,0 159.04,-71.2 159.04,-159.05"
             style="fill:#f7f7f7;fill-opacity:1;fill-rule:nonzero;stroke:none"
             id="path358" />
        </g>
      </g>
      <g
         id="g360">
        <g
           id="g362"
           clip-path="url(#clipPath366)">
          <path
             d="m 1801.36,1317.86 c -45.26,0 -86.09,18.9 -115.05,49.24 16.51,22.46 41.77,50.54 70.99,61.62 12.21,4.63 27.39,6.89 43.76,6.89 0.23,0 0.45,0 0.68,0 l -2.76,-10.32 c -20.79,-8.66 -25.99,-32.91 -3.47,-34.64 0.61,-0.05 1.24,-0.07 1.87,-0.07 23.05,-0.01 65.69,29.52 65.69,29.52 l 0.9,5.38 c 27.01,-8.77 51.44,-23.1 65.74,-42.5 -28.94,-39.49 -75.65,-65.12 -128.35,-65.12"
             style="fill:#d8d8d8;fill-opacity:1;fill-rule:nonzero;stroke:none"
             id="path368" />
          <path
             d="m 1797.38,1390.58 c -0.63,0 -1.26,0.02 -1.87,0.07 -22.52,1.73 -17.32,25.98 3.47,34.64 l 2.76,10.32 2.91,10.87 c -9.42,-2.7 -17.46,-3.92 -24.31,-3.92 -44.58,0 -38.66,51.85 -30.05,85.51 24.56,9.36 34.48,32.68 34.48,32.68 3.36,-19.23 17.91,-23.65 30.56,-23.65 10.75,0 20.14,3.19 20.14,3.19 l 4.45,-44.47 c 0,0 8.56,-44.54 22.32,-44.53 0.27,0 0.53,0.02 0.8,0.05 2.87,0.36 5.16,4.36 6.99,10.52 -0.01,-0.13 -0.02,-0.26 -0.04,-0.39 l -6.02,-35.99 -0.9,-5.38 c 0,0 -42.64,-29.53 -65.69,-29.52 m 79.84,148.16 c 0.06,3.78 0.06,6.01 0.06,6.01 0,0 0.08,0.1 0.24,0.3 -0.08,-2.04 -0.18,-4.15 -0.3,-6.31"
             style="fill:#dddddd;fill-opacity:1;fill-rule:nonzero;stroke:none"
             id="path370" />
          <path
             d="m 1862.24,1451.29 c -13.76,-0.01 -22.32,44.53 -22.32,44.53 l -4.45,44.47 c 0,0 -9.39,-3.19 -20.14,-3.19 -12.65,0 -27.2,4.42 -30.56,23.65 0,0 -9.92,-23.32 -34.48,-32.68 -5.76,-2.19 -12.34,-3.62 -19.79,-3.79 -0.29,-0.01 -0.58,-0.01 -0.86,-0.01 -38.41,0 -46.96,58.77 -17.82,64.95 6.23,1.32 12.71,1.84 19.03,1.84 23.49,0 45.02,-7.17 45.02,-7.17 0,0 -14.23,27.56 19.57,27.56 33.8,0 41.81,-27.56 41.81,-27.56 0,0 11.95,14.05 22.73,14.05 1.34,0 2.67,-0.22 3.96,-0.71 11.56,-4.46 3.55,-17.8 3.55,-17.8 0,0 2.48,0.27 5.82,0.27 7.24,0 18.53,-1.25 17.31,-9.16 -1.62,-10.57 -11.43,-23.37 -13.1,-25.49 -0.16,-0.2 -0.24,-0.3 -0.24,-0.3 0,0 0,-2.23 -0.06,-6.01 -0.22,-15.53 -1.36,-57.21 -7.19,-76.88 -1.83,-6.16 -4.12,-10.16 -6.99,-10.52 -0.27,-0.03 -0.53,-0.05 -0.8,-0.05"
             style="fill:#b5b5b5;fill-opacity:1;fill-rule:nonzero;stroke:none"
             id="path372" />
        </g>
      </g>
      <g
         id="g374">
        <g
           id="g376"
           clip-path="url(#clipPath380)">
          <path
             d="m 1064.17,1476.9 c 0,-87.83 -71.205,-159.04 -159.041,-159.04 -87.84,0 -159.043,71.21 -159.043,159.04 0,87.85 71.203,159.05 159.043,159.05 87.836,0 159.041,-71.2 159.041,-159.05"
             style="fill:#fff7dc;fill-opacity:1;fill-rule:nonzero;stroke:none"
             id="path382" />
        </g>
      </g>
      <g
         id="g384">
        <g
           id="g386"
           clip-path="url(#clipPath390)">
          <path
             d="m 769.68,1335.54 c 0,0 39.422,73.47 91.394,93.18 51.969,19.72 157.696,-3.58 180.996,-60.93 23.3,-57.34 -48.386,-80.64 -141.574,-77.06 -93.187,3.59 -130.816,44.81 -130.816,44.81"
             style="fill:#7595ec;fill-opacity:1;fill-rule:nonzero;stroke:none"
             id="path392" />
          <path
             d="m 902.75,1425.29 c -20.785,-8.66 -25.98,-32.91 -3.469,-34.65 22.52,-1.72 67.559,29.46 67.559,29.46 l 6.93,41.37 c 3.46,43.31 14.589,111.64 1.367,116.67 -18.684,7.12 -74.746,8.43 -91.621,4.45 -13.356,-3.15 -20.782,-26.37 -24.075,-36.24 -10.386,-31.18 -34.636,-123.88 48.981,-99.87 l -5.672,-21.19"
             style="fill:#f9865f;fill-opacity:1;fill-rule:nonzero;stroke:none"
             id="path394" />
          <path
             d="m 888.535,1560.75 c 0,0 -15.121,-35.57 -54.262,-36.47 -39.14,-0.89 -48.039,58.71 -18.683,64.94 29.355,6.23 64.051,-5.33 64.051,-5.33 0,0 -14.235,27.57 19.57,27.57 33.801,0 41.809,-27.57 41.809,-27.57 0,0 15.125,17.78 26.683,13.34 11.567,-4.46 3.563,-17.8 3.563,-17.8 0,0 24.906,2.67 23.129,-8.89 -1.782,-11.57 -13.344,-25.79 -13.344,-25.79 0,0 0,-91.63 -14.235,-93.41 -14.234,-1.78 -23.128,44.48 -23.128,44.48 l -4.45,44.47 c 0,0 -44.476,-15.11 -50.703,20.46"
             style="fill:#2a1e33;fill-opacity:1;fill-rule:nonzero;stroke:none"
             id="path396" />
        </g>
      </g>
      <g
         id="g398">
        <g
           id="g400"
           clip-path="url(#clipPath404)">
          <path
             d="m 1499.57,1476.9 c 0,-87.83 -71.21,-159.04 -159.05,-159.04 -87.84,0 -159.04,71.21 -159.04,159.04 0,87.85 71.2,159.05 159.04,159.05 87.84,0 159.05,-71.2 159.05,-159.05"
             style="fill:#f7f7f7;fill-opacity:1;fill-rule:nonzero;stroke:none"
             id="path406" />
        </g>
      </g>
      <g
         id="g408">
        <g
           id="g410"
           clip-path="url(#clipPath414)">
          <path
             d="m 1340.52,1317.86 c -45.25,0 -86.08,18.9 -115.05,49.23 16.51,22.46 41.77,50.55 70.99,61.63 12.21,4.63 27.39,6.89 43.77,6.89 0.23,0 0.45,0 0.68,0 l -2.77,-10.32 c -20.78,-8.66 -25.98,-32.91 -3.46,-34.64 0.6,-0.05 1.23,-0.07 1.87,-0.07 23.04,-0.01 65.69,29.52 65.69,29.52 l 0.9,5.38 c 27.01,-8.77 51.44,-23.1 65.74,-42.5 -28.94,-39.48 -75.66,-65.12 -128.36,-65.12"
             style="fill:#d8d8d8;fill-opacity:1;fill-rule:nonzero;stroke:none"
             id="path416" />
          <path
             d="m 1336.55,1390.58 c -0.64,0 -1.27,0.02 -1.87,0.07 -22.52,1.73 -17.32,25.98 3.46,34.64 l 2.77,10.32 2.91,10.87 c -9.42,-2.7 -17.46,-3.92 -24.31,-3.92 -44.58,0 -38.67,51.84 -30.05,85.51 24.55,9.35 34.47,32.68 34.47,32.68 3.37,-19.23 17.91,-23.65 30.56,-23.65 10.76,0 20.14,3.19 20.14,3.19 l 4.45,-44.47 c 0,0 8.57,-44.54 22.33,-44.53 0.27,0 0.53,0.02 0.8,0.05 2.87,0.36 5.16,4.36 6.99,10.53 -0.01,-0.13 -0.02,-0.26 -0.03,-0.4 l -6.03,-35.99 -0.9,-5.38 c 0,0 -42.65,-29.53 -65.69,-29.52 m 79.84,148.16 c 0.05,3.78 0.05,6.01 0.05,6.01 0,0 0.09,0.1 0.25,0.3 -0.08,-2.04 -0.18,-4.15 -0.3,-6.31"
             style="fill:#dddddd;fill-opacity:1;fill-rule:nonzero;stroke:none"
             id="path418" />
          <path
             d="m 1401.41,1451.29 c -13.76,-0.01 -22.33,44.53 -22.33,44.53 l -4.45,44.47 c 0,0 -9.38,-3.19 -20.14,-3.19 -12.65,0 -27.19,4.42 -30.56,23.65 0,0 -9.92,-23.33 -34.47,-32.68 -5.77,-2.2 -12.34,-3.62 -19.79,-3.79 -0.29,-0.01 -0.58,-0.01 -0.87,-0.01 -38.41,0 -46.95,58.77 -17.81,64.95 6.23,1.32 12.7,1.84 19.03,1.84 23.49,0 45.02,-7.17 45.02,-7.17 0,0 -14.24,27.56 19.56,27.56 33.81,0 41.82,-27.56 41.82,-27.56 0,0 11.95,14.05 22.72,14.05 1.35,0 2.68,-0.22 3.96,-0.71 11.56,-4.46 3.56,-17.8 3.56,-17.8 0,0 2.48,0.27 5.82,0.27 7.24,0 18.53,-1.25 17.3,-9.16 -1.62,-10.57 -11.42,-23.37 -13.09,-25.49 -0.16,-0.2 -0.25,-0.3 -0.25,-0.3 0,0 0,-2.23 -0.05,-6.01 -0.22,-15.53 -1.36,-57.2 -7.19,-76.87 -1.83,-6.17 -4.12,-10.17 -6.99,-10.53 -0.27,-0.03 -0.53,-0.05 -0.8,-0.05"
             style="fill:#b5b5b5;fill-opacity:1;fill-rule:nonzero;stroke:none"
             id="path420" />
        </g>
      </g>
      <g
         id="g422">
        <g
           id="g424"
           clip-path="url(#clipPath428)">
          <path
             d="m 8671.04,1855.85 c 0,-13.66 -11.07,-24.74 -24.72,-24.74 -13.66,0 -24.74,11.08 -24.74,24.74 0,13.66 11.08,24.74 24.74,24.74 13.65,0 24.72,-11.08 24.72,-24.74"
             style="fill:#91ba83;fill-opacity:1;fill-rule:nonzero;stroke:none"
             id="path430" />
          <path
             d="m 4027.21,3042.09 c 0,-13.65 -11.07,-24.73 -24.73,-24.73 -13.66,0 -24.73,11.08 -24.73,24.73 0,13.67 11.07,24.74 24.73,24.74 13.66,0 24.73,-11.07 24.73,-24.74"
             style="fill:#91ba83;fill-opacity:1;fill-rule:nonzero;stroke:none"
             id="path432" />
          <path
             d="m 8926.02,238.512 c -13.81,4.359 -21.47,19.109 -17.09,32.918 4.36,13.8 19.1,21.449 32.91,17.09 13.8,-4.379 21.46,-19.122 17.09,-32.918 -4.37,-13.813 -19.11,-21.473 -32.91,-17.09"
             style="fill:#2a1e17;fill-opacity:1;fill-rule:nonzero;stroke:none"
             id="path434" />
          <path
             d="m 10438.8,1156.84 c 0.1,0.29 19.9,59.24 20,130.42 0,53.28 -11.2,113.72 -50.9,161.08 -39.7,47.39 -107.7,80.76 -219,80.7 -109.5,-0.02 -261.25,-32.03 -471.3,-114.55 -410.05,-161.12 -714.81,-397.8 -917.14,-620.959 -101.17,-111.582 -176.73,-219.781 -227.07,-313.562 -50.31,-93.84 -75.52,-173.059 -75.58,-227.719 0.01,-18.512 2.91,-34.301 9.05,-46.918 6.1,-12.613 15.67,-22 28.21,-26.953 29.17,-11.578 60.78,-16.258 92.91,-16.258 72.48,0.02 147.76,23.77 205.08,47.41 57.31,23.66 96.62,47.289 96.76,47.379 2.37,1.422 3.13,4.492 1.71,6.86 -1.42,2.359 -4.49,3.128 -6.86,1.71 0,0 -0.58,-0.351 -1.74,-1.031 -8.7,-5.078 -49.42,-28.23 -104.5,-50.051 -55.07,-21.839 -124.55,-42.296 -190.45,-42.277 -31.16,-0.012 -61.5,4.551 -89.22,15.551 -10.16,4.07 -17.64,11.289 -22.91,22.039 -5.25,10.738 -8.05,25.07 -8.04,42.539 -0.06,51.672 24.49,130.102 74.4,222.988 149.66,278.934 526.31,689.232 1139.04,929.942 209.34,82.27 360.05,113.88 467.65,113.86 109.4,-0.06 173.8,-32.45 211.4,-77.13 37.5,-44.71 48.5,-102.67 48.5,-154.65 0,-34.67 -4.9,-66.56 -9.8,-89.74 -2.4,-11.59 -4.8,-21 -6.7,-27.49 -0.9,-3.25 -1.6,-5.77 -2.1,-7.47 -0.6,-1.7 -0.8,-2.54 -0.8,-2.54 -0.9,-2.62 0.5,-5.45 3.1,-6.33 2.6,-0.88 5.5,0.53 6.3,3.15"
             style="fill:#2a1e17;fill-opacity:1;fill-rule:nonzero;stroke:none"
             id="path436" />
          <g
             id="g438"
             transform="scale(10)">
            <text
               xml:space="preserve"
               transform="matrix(1,0,0,-1,172.739,462.193)"
               style="font-variant:normal;font-weight:normal;font-size:6.2096px;font-family:Poppins;-inkscape-font-specification:Poppins-Regular;writing-mode:lr-tb;fill:#2a1e33;fill-opacity:1;fill-rule:nonzero;stroke:none"
               id="text442"><tspan
                 x="0 3.4960966 6.6811519 8.0288124 12.108404 15.647955 18.578625 19.795908 23.683117"
                 y="0"
                 sodipodi:role="line"
                 id="tspan440">By Design</tspan></text>
            <text
               xml:space="preserve"
               transform="matrix(1,0,0,-1,75.6429,462.48362)"
               style="font-variant:normal;font-weight:bold;font-size:13.3143px;font-family:Poppins;-inkscape-font-specification:Poppins-Bold;writing-mode:lr-tb;fill:#2a1e33;fill-opacity:1;fill-rule:nonzero;stroke:none"
               id="text446"><tspan
                 x="0 5.6850581 14.059568 22.367691 30.742195 34.00391 42.312035"
                 y="0"
                 sodipodi:role="line"
                 id="tspan444">Landing</tspan></text>
            <text
               xml:space="preserve"
               transform="matrix(1,0,0,-1,126.33,462.48362)"
               style="font-variant:normal;font-weight:300;font-size:13.3143px;font-family:Poppins;-inkscape-font-specification:Poppins-Light;writing-mode:lr-tb;fill:#2a1e33;fill-opacity:1;fill-rule:nonzero;stroke:none"
               id="text450"><tspan
                 x="0 6.84375 15.165045 23.48634"
                 y="0"
                 sodipodi:role="line"
                 id="tspan448">Page</tspan></text>
          </g>
          <path
             d="m 1656.88,4658.59 c 8.28,8.28 21.69,8.28 29.97,0 8.27,-8.27 8.27,-21.68 0,-29.96 -8.28,-8.27 -21.69,-8.27 -29.97,0 -8.27,8.28 -8.27,21.69 0,29.96"
             style="fill:#7595ec;fill-opacity:1;fill-rule:nonzero;stroke:none"
             id="path452" />
          <path
             d="m 640.211,4738.81 39.769,1 20.098,-62.44 c 2.055,-6.38 1.656,-13.29 -1.113,-19.39 l -40.176,-88.45 -41.351,89.06 c -3.118,6.71 -3.336,14.4 -0.614,21.27 l 23.387,58.95"
             style="fill:#f9865f;fill-opacity:1;fill-rule:nonzero;stroke:none"
             id="path454" />
          <path
             d="m 679.98,4739.81 -39.769,-1 0.324,6.39 c 0.535,10.52 9.313,18.72 19.848,18.55 10.105,-0.18 18.418,-8.02 19.164,-18.1 l 0.433,-5.84"
             style="fill:#2a1e17;fill-opacity:1;fill-rule:nonzero;stroke:none"
             id="path456" />
          <path
             d="m 663.789,4569.52 0.133,97.83 c 0.004,2.76 -2.234,5.01 -4.992,5.01 -2.762,0 -5.004,-2.23 -5.008,-4.99 l -0.133,-97.83 c -0.004,-2.77 2.231,-5.01 4.992,-5.01 2.762,-0.01 5.004,2.23 5.008,4.99"
             style="fill:#ffffff;fill-opacity:1;fill-rule:nonzero;stroke:none"
             id="path458" />
        </g>
      </g>
    </g>
  </g>
</svg>
